<svg xmlns="http://www.w3.org/2000/svg" width="760" height="400" viewBox="0 0 760 400" font-family="-apple-system,Segoe UI,Roboto,sans-serif">
<rect width="760" height="400" fill="#111" rx="8"/>
<text x="72" y="30" fill="#ddd" font-size="16" font-weight="600">Tokens per arm — by prompt × model</text>
<text x="740" y="30" fill="#888" font-size="11" text-anchor="end">millions ≈ /48 (lower is better)</text>
<line x1="72" y1="316.0" x2="740" y2="316.0" stroke="#333" stroke-width="1"/>
<text x="64" y="320.0" fill="#888" font-size="11" text-anchor="end">0</text>
<line x1="72" y1="251.0" x2="740" y2="251.0" stroke="#333" stroke-width="1"/>
<text x="64" y="255.0" fill="#888" font-size="11" text-anchor="end">1</text>
<line x1="72" y1="186.0" x2="740" y2="186.0" stroke="#333" stroke-width="1"/>
<text x="64" y="190.0" fill="#888" font-size="11" text-anchor="end">2</text>
<line x1="72" y1="121.0" x2="740" y2="121.0" stroke="#333" stroke-width="1"/>
<text x="64" y="125.0" fill="#888" font-size="11" text-anchor="end">3</text>
<line x1="72" y1="56.0" x2="740" y2="56.0" stroke="#333" stroke-width="1"/>
<text x="64" y="60.0" fill="#888" font-size="11" text-anchor="end">4</text>
<rect x="73.0" y="231.5" width="14.6857" height="84.5" fill="#6aa9ff" rx="2"/>
<text x="80.3" y="226.5" fill="#ddd" font-size="10" text-anchor="middle">1.3M</text>
<rect x="92.7" y="69.0" width="14.6857" height="247.0" fill="#f0a35e" rx="2"/>
<text x="100.0" y="64.0" fill="#ddd" font-size="10" text-anchor="middle">3.8M</text>
<rect x="112.4" y="173.0" width="14.6857" height="143.0" fill="#7ed09a" rx="2"/>
<text x="119.7" y="168.0" fill="#ddd" font-size="10" text-anchor="middle">2.2M</text>
<rect x="132.1" y="218.5" width="14.6857" height="97.5" fill="#c792ea" rx="2"/>
<text x="139.4" y="213.5" fill="#ddd" font-size="10" text-anchor="middle">1.5M</text>
<text x="119.7" y="334" fill="#ddd" font-size="11.5" text-anchor="middle">default</text>
<rect x="168.4" y="218.5" width="14.6857" height="97.5" fill="#6aa9ff" rx="2"/>
<text x="175.8" y="213.5" fill="#ddd" font-size="10" text-anchor="middle">1.5M</text>
<rect x="188.1" y="140.5" width="14.6857" height="175.5" fill="#f0a35e" rx="2"/>
<text x="195.5" y="135.5" fill="#ddd" font-size="10" text-anchor="middle">2.7M</text>
<rect x="207.8" y="160.0" width="14.6857" height="156.0" fill="#7ed09a" rx="2"/>
<text x="215.1" y="155.0" fill="#ddd" font-size="10" text-anchor="middle">2.4M</text>
<rect x="227.5" y="212.0" width="14.6857" height="104.0" fill="#c792ea" rx="2"/>
<text x="234.8" y="207.0" fill="#ddd" font-size="10" text-anchor="middle">1.6M</text>
<text x="215.1" y="334" fill="#ddd" font-size="11.5" text-anchor="middle">sharp</text>
<rect x="263.9" y="225.0" width="14.6857" height="91.0" fill="#6aa9ff" rx="2"/>
<text x="271.2" y="220.0" fill="#ddd" font-size="10" text-anchor="middle">1.4M</text>
<rect x="283.5" y="101.5" width="14.6857" height="214.5" fill="#f0a35e" rx="2"/>
<text x="290.9" y="96.5" fill="#ddd" font-size="10" text-anchor="middle">3.3M</text>
<rect x="303.2" y="160.0" width="14.6857" height="156.0" fill="#7ed09a" rx="2"/>
<text x="310.6" y="155.0" fill="#ddd" font-size="10" text-anchor="middle">2.4M</text>
<rect x="322.9" y="205.5" width="14.6857" height="110.5" fill="#c792ea" rx="2"/>
<text x="330.3" y="200.5" fill="#ddd" font-size="10" text-anchor="middle">1.7M</text>
<rect x="342.6" y="212.0" width="14.6857" height="104.0" fill="#e06c75" rx="2"/>
<text x="349.9" y="207.0" fill="#ddd" font-size="10" text-anchor="middle">1.6M</text>
<text x="310.6" y="334" fill="#ddd" font-size="11.5" text-anchor="middle">cursor</text>
<rect x="359.3" y="218.5" width="14.6857" height="97.5" fill="#6aa9ff" rx="2"/>
<text x="366.6" y="213.5" fill="#ddd" font-size="10" text-anchor="middle">1.5M</text>
<rect x="379.0" y="121.0" width="14.6857" height="195.0" fill="#f0a35e" rx="2"/>
<text x="386.3" y="116.0" fill="#ddd" font-size="10" text-anchor="middle">3.0M</text>
<rect x="398.7" y="173.0" width="14.6857" height="143.0" fill="#7ed09a" rx="2"/>
<text x="406.0" y="168.0" fill="#ddd" font-size="10" text-anchor="middle">2.2M</text>
<rect x="418.3" y="199.0" width="14.6857" height="117.0" fill="#c792ea" rx="2"/>
<text x="425.7" y="194.0" fill="#ddd" font-size="10" text-anchor="middle">1.8M</text>
<text x="406.0" y="334" fill="#ddd" font-size="11.5" text-anchor="middle">kc-auto</text>
<rect x="454.7" y="225.0" width="14.6857" height="91.0" fill="#6aa9ff" rx="2"/>
<text x="462.1" y="220.0" fill="#ddd" font-size="10" text-anchor="middle">1.4M</text>
<rect x="474.4" y="108.0" width="14.6857" height="208.0" fill="#f0a35e" rx="2"/>
<text x="481.7" y="103.0" fill="#ddd" font-size="10" text-anchor="middle">3.2M</text>
<rect x="494.1" y="166.5" width="14.6857" height="149.5" fill="#7ed09a" rx="2"/>
<text x="501.4" y="161.5" fill="#ddd" font-size="10" text-anchor="middle">2.3M</text>
<rect x="513.8" y="186.0" width="14.6857" height="130.0" fill="#c792ea" rx="2"/>
<text x="521.1" y="181.0" fill="#ddd" font-size="10" text-anchor="middle">2.0M</text>
<text x="501.4" y="334" fill="#ddd" font-size="11.5" text-anchor="middle">kc-bal</text>
<rect x="550.1" y="225.0" width="14.6857" height="91.0" fill="#6aa9ff" rx="2"/>
<text x="557.5" y="220.0" fill="#ddd" font-size="10" text-anchor="middle">1.4M</text>
<rect x="569.8" y="134.0" width="14.6857" height="182.0" fill="#f0a35e" rx="2"/>
<text x="577.2" y="129.0" fill="#ddd" font-size="10" text-anchor="middle">2.8M</text>
<rect x="589.5" y="160.0" width="14.6857" height="156.0" fill="#7ed09a" rx="2"/>
<text x="596.9" y="155.0" fill="#ddd" font-size="10" text-anchor="middle">2.4M</text>
<rect x="609.2" y="205.5" width="14.6857" height="110.5" fill="#c792ea" rx="2"/>
<text x="616.5" y="200.5" fill="#ddd" font-size="10" text-anchor="middle">1.7M</text>
<rect x="628.9" y="212.0" width="14.6857" height="104.0" fill="#e06c75" rx="2"/>
<text x="636.2" y="207.0" fill="#ddd" font-size="10" text-anchor="middle">1.6M</text>
<text x="596.9" y="334" fill="#ddd" font-size="11.5" text-anchor="middle">claude</text>
<rect x="704.6" y="218.5" width="14.6857" height="97.5" fill="#c792ea" rx="2"/>
<text x="712.0" y="213.5" fill="#ddd" font-size="10" text-anchor="middle">1.5M</text>
<text x="692.3" y="334" fill="#ddd" font-size="11.5" text-anchor="middle">codex</text>
<line x1="72" y1="316" x2="740" y2="316" stroke="#888" stroke-width="1"/>
<rect x="72" y="369" width="12" height="12" fill="#6aa9ff" rx="2"/>
<text x="90" y="379" fill="#ddd" font-size="12">GLM-5.2</text>
<rect x="152" y="369" width="12" height="12" fill="#f0a35e" rx="2"/>
<text x="170" y="379" fill="#ddd" font-size="12">K2.7</text>
<rect x="211" y="369" width="12" height="12" fill="#7ed09a" rx="2"/>
<text x="229" y="379" fill="#ddd" font-size="12">K2.6</text>
<rect x="270" y="369" width="12" height="12" fill="#c792ea" rx="2"/>
<text x="288" y="379" fill="#ddd" font-size="12">DeepSeek-V4-Pro</text>
<rect x="408" y="369" width="12" height="12" fill="#e06c75" rx="2"/>
<text x="426" y="379" fill="#ddd" font-size="12">Opus-4.8-xhigh</text>
</svg>