<svg xmlns="http://www.w3.org/2000/svg" width="760" height="400" viewBox="0 0 760 400" font-family="-apple-system,Segoe UI,Roboto,sans-serif">
<rect width="760" height="400" fill="#111" rx="8"/>
<text x="72" y="30" fill="#ddd" font-size="16" font-weight="600">Tool calls per instance — by prompt × model</text>
<text x="740" y="30" fill="#888" font-size="11" text-anchor="end">avg calls (lower is better)</text>
<line x1="72" y1="316.0" x2="740" y2="316.0" stroke="#333" stroke-width="1"/>
<text x="64" y="320.0" fill="#888" font-size="11" text-anchor="end">0</text>
<line x1="72" y1="245.1" x2="740" y2="245.1" stroke="#333" stroke-width="1"/>
<text x="64" y="249.1" fill="#888" font-size="11" text-anchor="end">15</text>
<line x1="72" y1="174.2" x2="740" y2="174.2" stroke="#333" stroke-width="1"/>
<text x="64" y="178.2" fill="#888" font-size="11" text-anchor="end">30</text>
<line x1="72" y1="103.3" x2="740" y2="103.3" stroke="#333" stroke-width="1"/>
<text x="64" y="107.3" fill="#888" font-size="11" text-anchor="end">45</text>
<rect x="73.0" y="264.0" width="14.6857" height="52.0" fill="#6aa9ff" rx="2"/>
<text x="80.3" y="259.0" fill="#ddd" font-size="10" text-anchor="middle">11</text>
<rect x="92.7" y="79.6" width="14.6857" height="236.4" fill="#f0a35e" rx="2"/>
<text x="100.0" y="74.6" fill="#ddd" font-size="10" text-anchor="middle">50</text>
<rect x="112.4" y="160.0" width="14.6857" height="156.0" fill="#7ed09a" rx="2"/>
<text x="119.7" y="155.0" fill="#ddd" font-size="10" text-anchor="middle">33</text>
<rect x="132.1" y="245.1" width="14.6857" height="70.9" fill="#c792ea" rx="2"/>
<text x="139.4" y="240.1" fill="#ddd" font-size="10" text-anchor="middle">15</text>
<text x="119.7" y="334" fill="#ddd" font-size="11.5" text-anchor="middle">default</text>
<rect x="168.4" y="249.8" width="14.6857" height="66.2" fill="#6aa9ff" rx="2"/>
<text x="175.8" y="244.8" fill="#ddd" font-size="10" text-anchor="middle">14</text>
<rect x="188.1" y="112.7" width="14.6857" height="203.3" fill="#f0a35e" rx="2"/>
<text x="195.5" y="107.7" fill="#ddd" font-size="10" text-anchor="middle">43</text>
<rect x="207.8" y="122.2" width="14.6857" height="193.8" fill="#7ed09a" rx="2"/>
<text x="215.1" y="117.2" fill="#ddd" font-size="10" text-anchor="middle">41</text>
<rect x="227.5" y="226.2" width="14.6857" height="89.8" fill="#c792ea" rx="2"/>
<text x="234.8" y="221.2" fill="#ddd" font-size="10" text-anchor="middle">19</text>
<text x="215.1" y="334" fill="#ddd" font-size="11.5" text-anchor="middle">sharp</text>
<rect x="263.9" y="245.1" width="14.6857" height="70.9" fill="#6aa9ff" rx="2"/>
<text x="271.2" y="240.1" fill="#ddd" font-size="10" text-anchor="middle">15</text>
<rect x="283.5" y="108.0" width="14.6857" height="208.0" fill="#f0a35e" rx="2"/>
<text x="290.9" y="103.0" fill="#ddd" font-size="10" text-anchor="middle">44</text>
<rect x="303.2" y="145.8" width="14.6857" height="170.2" fill="#7ed09a" rx="2"/>
<text x="310.6" y="140.8" fill="#ddd" font-size="10" text-anchor="middle">36</text>
<rect x="322.9" y="226.2" width="14.6857" height="89.8" fill="#c792ea" rx="2"/>
<text x="330.3" y="221.2" fill="#ddd" font-size="10" text-anchor="middle">19</text>
<rect x="342.6" y="230.9" width="14.6857" height="85.1" fill="#e06c75" rx="2"/>
<text x="349.9" y="225.9" fill="#ddd" font-size="10" text-anchor="middle">18</text>
<text x="310.6" y="334" fill="#ddd" font-size="11.5" text-anchor="middle">cursor</text>
<rect x="359.3" y="216.7" width="14.6857" height="99.3" fill="#6aa9ff" rx="2"/>
<text x="366.6" y="211.7" fill="#ddd" font-size="10" text-anchor="middle">21</text>
<rect x="379.0" y="112.7" width="14.6857" height="203.3" fill="#f0a35e" rx="2"/>
<text x="386.3" y="107.7" fill="#ddd" font-size="10" text-anchor="middle">43</text>
<rect x="398.7" y="122.2" width="14.6857" height="193.8" fill="#7ed09a" rx="2"/>
<text x="406.0" y="117.2" fill="#ddd" font-size="10" text-anchor="middle">41</text>
<rect x="418.3" y="183.6" width="14.6857" height="132.4" fill="#c792ea" rx="2"/>
<text x="425.7" y="178.6" fill="#ddd" font-size="10" text-anchor="middle">28</text>
<text x="406.0" y="334" fill="#ddd" font-size="11.5" text-anchor="middle">kc-auto</text>
<rect x="454.7" y="235.6" width="14.6857" height="80.4" fill="#6aa9ff" rx="2"/>
<text x="462.1" y="230.6" fill="#ddd" font-size="10" text-anchor="middle">17</text>
<rect x="474.4" y="108.0" width="14.6857" height="208.0" fill="#f0a35e" rx="2"/>
<text x="481.7" y="103.0" fill="#ddd" font-size="10" text-anchor="middle">44</text>
<rect x="494.1" y="122.2" width="14.6857" height="193.8" fill="#7ed09a" rx="2"/>
<text x="501.4" y="117.2" fill="#ddd" font-size="10" text-anchor="middle">41</text>
<rect x="513.8" y="174.2" width="14.6857" height="141.8" fill="#c792ea" rx="2"/>
<text x="521.1" y="169.2" fill="#ddd" font-size="10" text-anchor="middle">30</text>
<text x="501.4" y="334" fill="#ddd" font-size="11.5" text-anchor="middle">kc-bal</text>
<rect x="550.1" y="245.1" width="14.6857" height="70.9" fill="#6aa9ff" rx="2"/>
<text x="557.5" y="240.1" fill="#ddd" font-size="10" text-anchor="middle">15</text>
<rect x="569.8" y="112.7" width="14.6857" height="203.3" fill="#f0a35e" rx="2"/>
<text x="577.2" y="107.7" fill="#ddd" font-size="10" text-anchor="middle">43</text>
<rect x="589.5" y="131.6" width="14.6857" height="184.4" fill="#7ed09a" rx="2"/>
<text x="596.9" y="126.6" fill="#ddd" font-size="10" text-anchor="middle">39</text>
<rect x="609.2" y="230.9" width="14.6857" height="85.1" fill="#c792ea" rx="2"/>
<text x="616.5" y="225.9" fill="#ddd" font-size="10" text-anchor="middle">18</text>
<rect x="628.9" y="212.0" width="14.6857" height="104.0" fill="#e06c75" rx="2"/>
<text x="636.2" y="207.0" fill="#ddd" font-size="10" text-anchor="middle">22</text>
<text x="596.9" y="334" fill="#ddd" font-size="11.5" text-anchor="middle">claude</text>
<rect x="704.6" y="226.2" width="14.6857" height="89.8" fill="#c792ea" rx="2"/>
<text x="712.0" y="221.2" fill="#ddd" font-size="10" text-anchor="middle">19</text>
<text x="692.3" y="334" fill="#ddd" font-size="11.5" text-anchor="middle">codex</text>
<line x1="72" y1="316" x2="740" y2="316" stroke="#888" stroke-width="1"/>
<rect x="72" y="369" width="12" height="12" fill="#6aa9ff" rx="2"/>
<text x="90" y="379" fill="#ddd" font-size="12">GLM-5.2</text>
<rect x="152" y="369" width="12" height="12" fill="#f0a35e" rx="2"/>
<text x="170" y="379" fill="#ddd" font-size="12">K2.7</text>
<rect x="211" y="369" width="12" height="12" fill="#7ed09a" rx="2"/>
<text x="229" y="379" fill="#ddd" font-size="12">K2.6</text>
<rect x="270" y="369" width="12" height="12" fill="#c792ea" rx="2"/>
<text x="288" y="379" fill="#ddd" font-size="12">DeepSeek-V4-Pro</text>
<rect x="408" y="369" width="12" height="12" fill="#e06c75" rx="2"/>
<text x="426" y="379" fill="#ddd" font-size="12">Opus-4.8-xhigh</text>
</svg>