<svg xmlns="http://www.w3.org/2000/svg" width="760" height="400" viewBox="0 0 760 400" font-family="-apple-system,Segoe UI,Roboto,sans-serif">
<rect width="760" height="400" fill="#111" rx="8"/>
<text x="72" y="30" fill="#ddd" font-size="16" font-weight="600">Tokens per arm — by prompt × model</text>
<text x="740" y="30" fill="#888" font-size="11" text-anchor="end">millions, 48 instances (lower is better)</text>
<line x1="72" y1="316.0" x2="740" y2="316.0" stroke="#333" stroke-width="1"/>
<text x="64" y="320.0" fill="#888" font-size="11" text-anchor="end">0</text>
<line x1="72" y1="251.0" x2="740" y2="251.0" stroke="#333" stroke-width="1"/>
<text x="64" y="255.0" fill="#888" font-size="11" text-anchor="end">35</text>
<line x1="72" y1="186.0" x2="740" y2="186.0" stroke="#333" stroke-width="1"/>
<text x="64" y="190.0" fill="#888" font-size="11" text-anchor="end">70</text>
<line x1="72" y1="121.0" x2="740" y2="121.0" stroke="#333" stroke-width="1"/>
<text x="64" y="125.0" fill="#888" font-size="11" text-anchor="end">105</text>
<line x1="72" y1="56.0" x2="740" y2="56.0" stroke="#333" stroke-width="1"/>
<text x="64" y="60.0" fill="#888" font-size="11" text-anchor="end">140</text>
<rect x="73.0" y="293.7" width="14.6857" height="22.3" fill="#6aa9ff" rx="2"/>
<text x="80.3" y="288.7" fill="#ddd" font-size="10" text-anchor="middle">12M</text>
<rect x="92.7" y="69.0" width="14.6857" height="247.0" fill="#f0a35e" rx="2"/>
<text x="100.0" y="64.0" fill="#ddd" font-size="10" text-anchor="middle">133M</text>
<rect x="112.4" y="199.0" width="14.6857" height="117.0" fill="#7ed09a" rx="2"/>
<text x="119.7" y="194.0" fill="#ddd" font-size="10" text-anchor="middle">63M</text>
<rect x="132.1" y="277.0" width="14.6857" height="39.0" fill="#c792ea" rx="2"/>
<text x="139.4" y="272.0" fill="#ddd" font-size="10" text-anchor="middle">21M</text>
<text x="119.7" y="334" fill="#ddd" font-size="11.5" text-anchor="middle">default</text>
<rect x="168.4" y="288.1" width="14.6857" height="27.9" fill="#6aa9ff" rx="2"/>
<text x="175.8" y="283.1" fill="#ddd" font-size="10" text-anchor="middle">15M</text>
<rect x="188.1" y="115.4" width="14.6857" height="200.6" fill="#f0a35e" rx="2"/>
<text x="195.5" y="110.4" fill="#ddd" font-size="10" text-anchor="middle">108M</text>
<rect x="207.8" y="176.7" width="14.6857" height="139.3" fill="#7ed09a" rx="2"/>
<text x="215.1" y="171.7" fill="#ddd" font-size="10" text-anchor="middle">75M</text>
<rect x="227.5" y="258.4" width="14.6857" height="57.6" fill="#c792ea" rx="2"/>
<text x="234.8" y="253.4" fill="#ddd" font-size="10" text-anchor="middle">31M</text>
<text x="215.1" y="334" fill="#ddd" font-size="11.5" text-anchor="middle">sharp</text>
<rect x="263.9" y="278.9" width="14.6857" height="37.1" fill="#6aa9ff" rx="2"/>
<text x="271.2" y="273.9" fill="#ddd" font-size="10" text-anchor="middle">20M</text>
<rect x="283.5" y="108.0" width="14.6857" height="208.0" fill="#f0a35e" rx="2"/>
<text x="290.9" y="103.0" fill="#ddd" font-size="10" text-anchor="middle">112M</text>
<rect x="303.2" y="182.3" width="14.6857" height="133.7" fill="#7ed09a" rx="2"/>
<text x="310.6" y="177.3" fill="#ddd" font-size="10" text-anchor="middle">72M</text>
<rect x="322.9" y="267.7" width="14.6857" height="48.3" fill="#c792ea" rx="2"/>
<text x="330.3" y="262.7" fill="#ddd" font-size="10" text-anchor="middle">26M</text>
<rect x="342.6" y="241.7" width="14.6857" height="74.3" fill="#e06c75" rx="2"/>
<text x="349.9" y="236.7" fill="#ddd" font-size="10" text-anchor="middle">40M</text>
<text x="310.6" y="334" fill="#ddd" font-size="11.5" text-anchor="middle">cursor</text>
<rect x="359.3" y="265.9" width="14.6857" height="50.1" fill="#6aa9ff" rx="2"/>
<text x="366.6" y="260.9" fill="#ddd" font-size="10" text-anchor="middle">27M</text>
<rect x="379.0" y="109.9" width="14.6857" height="206.1" fill="#f0a35e" rx="2"/>
<text x="386.3" y="104.9" fill="#ddd" font-size="10" text-anchor="middle">111M</text>
<rect x="398.7" y="158.1" width="14.6857" height="157.9" fill="#7ed09a" rx="2"/>
<text x="406.0" y="153.1" fill="#ddd" font-size="10" text-anchor="middle">85M</text>
<rect x="418.3" y="241.7" width="14.6857" height="74.3" fill="#c792ea" rx="2"/>
<text x="425.7" y="236.7" fill="#ddd" font-size="10" text-anchor="middle">40M</text>
<text x="406.0" y="334" fill="#ddd" font-size="11.5" text-anchor="middle">kc-auto</text>
<rect x="454.7" y="282.6" width="14.6857" height="33.4" fill="#6aa9ff" rx="2"/>
<text x="462.1" y="277.6" fill="#ddd" font-size="10" text-anchor="middle">18M</text>
<rect x="474.4" y="128.4" width="14.6857" height="187.6" fill="#f0a35e" rx="2"/>
<text x="481.7" y="123.4" fill="#ddd" font-size="10" text-anchor="middle">101M</text>
<rect x="494.1" y="160.0" width="14.6857" height="156.0" fill="#7ed09a" rx="2"/>
<text x="501.4" y="155.0" fill="#ddd" font-size="10" text-anchor="middle">84M</text>
<rect x="513.8" y="238.0" width="14.6857" height="78.0" fill="#c792ea" rx="2"/>
<text x="521.1" y="233.0" fill="#ddd" font-size="10" text-anchor="middle">42M</text>
<text x="501.4" y="334" fill="#ddd" font-size="11.5" text-anchor="middle">kc-bal</text>
<rect x="550.1" y="284.4" width="14.6857" height="31.6" fill="#6aa9ff" rx="2"/>
<text x="557.5" y="279.4" fill="#ddd" font-size="10" text-anchor="middle">17M</text>
<rect x="569.8" y="135.9" width="14.6857" height="180.1" fill="#f0a35e" rx="2"/>
<text x="577.2" y="130.9" fill="#ddd" font-size="10" text-anchor="middle">97M</text>
<rect x="589.5" y="173.0" width="14.6857" height="143.0" fill="#7ed09a" rx="2"/>
<text x="596.9" y="168.0" fill="#ddd" font-size="10" text-anchor="middle">77M</text>
<rect x="609.2" y="271.4" width="14.6857" height="44.6" fill="#c792ea" rx="2"/>
<text x="616.5" y="266.4" fill="#ddd" font-size="10" text-anchor="middle">24M</text>
<rect x="628.9" y="225.0" width="14.6857" height="91.0" fill="#e06c75" rx="2"/>
<text x="636.2" y="220.0" fill="#ddd" font-size="10" text-anchor="middle">49M</text>
<text x="596.9" y="334" fill="#ddd" font-size="11.5" text-anchor="middle">claude</text>
<rect x="704.6" y="265.9" width="14.6857" height="50.1" fill="#c792ea" rx="2"/>
<text x="712.0" y="260.9" fill="#ddd" font-size="10" text-anchor="middle">27M</text>
<text x="692.3" y="334" fill="#ddd" font-size="11.5" text-anchor="middle">codex</text>
<line x1="72" y1="316" x2="740" y2="316" stroke="#888" stroke-width="1"/>
<rect x="72" y="369" width="12" height="12" fill="#6aa9ff" rx="2"/>
<text x="90" y="379" fill="#ddd" font-size="12">GLM-5.2</text>
<rect x="152" y="369" width="12" height="12" fill="#f0a35e" rx="2"/>
<text x="170" y="379" fill="#ddd" font-size="12">K2.7</text>
<rect x="211" y="369" width="12" height="12" fill="#7ed09a" rx="2"/>
<text x="229" y="379" fill="#ddd" font-size="12">K2.6</text>
<rect x="270" y="369" width="12" height="12" fill="#c792ea" rx="2"/>
<text x="288" y="379" fill="#ddd" font-size="12">DeepSeek-V4-Pro</text>
<rect x="408" y="369" width="12" height="12" fill="#e06c75" rx="2"/>
<text x="426" y="379" fill="#ddd" font-size="12">Opus-4.8-xhigh</text>
</svg>