<svg xmlns="http://www.w3.org/2000/svg" width="760" height="400" viewBox="0 0 760 400" font-family="-apple-system,Segoe UI,Roboto,sans-serif">
<rect width="760" height="400" fill="#111" rx="8"/>
<text x="72" y="30" fill="#ddd" font-size="16" font-weight="600">Tool calls per instance — by prompt × model</text>
<text x="740" y="30" fill="#888" font-size="11" text-anchor="end">avg calls (lower is better)</text>
<line x1="72" y1="316.0" x2="740" y2="316.0" stroke="#333" stroke-width="1"/>
<text x="64" y="320.0" fill="#888" font-size="11" text-anchor="end">0</text>
<line x1="72" y1="229.3" x2="740" y2="229.3" stroke="#333" stroke-width="1"/>
<text x="64" y="233.3" fill="#888" font-size="11" text-anchor="end">15</text>
<line x1="72" y1="142.7" x2="740" y2="142.7" stroke="#333" stroke-width="1"/>
<text x="64" y="146.7" fill="#888" font-size="11" text-anchor="end">30</text>
<line x1="72" y1="56.0" x2="740" y2="56.0" stroke="#333" stroke-width="1"/>
<text x="64" y="60.0" fill="#888" font-size="11" text-anchor="end">45</text>
<rect x="82.7" y="171.6" width="26" height="144.4" fill="#6aa9ff" rx="2"/>
<text x="95.7" y="166.6" fill="#ddd" font-size="10" text-anchor="middle">25</text>
<rect x="114.7" y="165.8" width="26" height="150.2" fill="#f0a35e" rx="2"/>
<text x="127.7" y="160.8" fill="#ddd" font-size="10" text-anchor="middle">26</text>
<rect x="146.7" y="252.4" width="26" height="63.6" fill="#7ed09a" rx="2"/>
<text x="159.7" y="247.4" fill="#ddd" font-size="10" text-anchor="middle">11</text>
<text x="127.7" y="334" fill="#ddd" font-size="11.5" text-anchor="middle">default</text>
<rect x="194.0" y="154.2" width="26" height="161.8" fill="#6aa9ff" rx="2"/>
<text x="207.0" y="149.2" fill="#ddd" font-size="10" text-anchor="middle">28</text>
<rect x="226.0" y="165.8" width="26" height="150.2" fill="#f0a35e" rx="2"/>
<text x="239.0" y="160.8" fill="#ddd" font-size="10" text-anchor="middle">26</text>
<rect x="258.0" y="235.1" width="26" height="80.9" fill="#7ed09a" rx="2"/>
<text x="271.0" y="230.1" fill="#ddd" font-size="10" text-anchor="middle">14</text>
<text x="239.0" y="334" fill="#ddd" font-size="11.5" text-anchor="middle">sharp</text>
<rect x="305.3" y="154.2" width="26" height="161.8" fill="#6aa9ff" rx="2"/>
<text x="318.3" y="149.2" fill="#ddd" font-size="10" text-anchor="middle">28</text>
<rect x="337.3" y="165.8" width="26" height="150.2" fill="#f0a35e" rx="2"/>
<text x="350.3" y="160.8" fill="#ddd" font-size="10" text-anchor="middle">26</text>
<rect x="369.3" y="229.3" width="26" height="86.7" fill="#7ed09a" rx="2"/>
<text x="382.3" y="224.3" fill="#ddd" font-size="10" text-anchor="middle">15</text>
<text x="350.3" y="334" fill="#ddd" font-size="11.5" text-anchor="middle">cursor</text>
<rect x="416.7" y="84.9" width="26" height="231.1" fill="#6aa9ff" rx="2"/>
<text x="429.7" y="79.9" fill="#ddd" font-size="10" text-anchor="middle">40</text>
<rect x="448.7" y="136.9" width="26" height="179.1" fill="#f0a35e" rx="2"/>
<text x="461.7" y="131.9" fill="#ddd" font-size="10" text-anchor="middle">31</text>
<rect x="480.7" y="194.7" width="26" height="121.3" fill="#7ed09a" rx="2"/>
<text x="493.7" y="189.7" fill="#ddd" font-size="10" text-anchor="middle">21</text>
<text x="461.7" y="334" fill="#ddd" font-size="11.5" text-anchor="middle">kc-auto</text>
<rect x="528.0" y="148.4" width="26" height="167.6" fill="#6aa9ff" rx="2"/>
<text x="541.0" y="143.4" fill="#ddd" font-size="10" text-anchor="middle">29</text>
<rect x="560.0" y="142.7" width="26" height="173.3" fill="#f0a35e" rx="2"/>
<text x="573.0" y="137.7" fill="#ddd" font-size="10" text-anchor="middle">30</text>
<rect x="592.0" y="217.8" width="26" height="98.2" fill="#7ed09a" rx="2"/>
<text x="605.0" y="212.8" fill="#ddd" font-size="10" text-anchor="middle">17</text>
<text x="573.0" y="334" fill="#ddd" font-size="11.5" text-anchor="middle">kc-bal</text>
<rect x="639.3" y="154.2" width="26" height="161.8" fill="#6aa9ff" rx="2"/>
<text x="652.3" y="149.2" fill="#ddd" font-size="10" text-anchor="middle">28</text>
<rect x="671.3" y="148.4" width="26" height="167.6" fill="#f0a35e" rx="2"/>
<text x="684.3" y="143.4" fill="#ddd" font-size="10" text-anchor="middle">29</text>
<rect x="703.3" y="229.3" width="26" height="86.7" fill="#7ed09a" rx="2"/>
<text x="716.3" y="224.3" fill="#ddd" font-size="10" text-anchor="middle">15</text>
<text x="684.3" y="334" fill="#ddd" font-size="11.5" text-anchor="middle">claude</text>
<line x1="72" y1="316" x2="740" y2="316" stroke="#888" stroke-width="1"/>
<rect x="72" y="369" width="12" height="12" fill="#6aa9ff" rx="2"/>
<text x="90" y="379" fill="#ddd" font-size="12">K2.6</text>
<rect x="168" y="369" width="12" height="12" fill="#f0a35e" rx="2"/>
<text x="186" y="379" fill="#ddd" font-size="12">K2.7</text>
<rect x="264" y="369" width="12" height="12" fill="#7ed09a" rx="2"/>
<text x="282" y="379" fill="#ddd" font-size="12">GLM-5.2</text>
</svg>