<svg xmlns="http://www.w3.org/2000/svg" width="760" height="400" viewBox="0 0 760 400" font-family="-apple-system,Segoe UI,Roboto,sans-serif">
<rect width="760" height="400" fill="#111" rx="8"/>
<text x="72" y="30" fill="#ddd" font-size="16" font-weight="600">Resolved — by prompt × model (harder band)</text>
<text x="740" y="30" fill="#888" font-size="11" text-anchor="end">/48 · whiskers = ±1 SE</text>
<line x1="72" y1="316.0" x2="740" y2="316.0" stroke="#333" stroke-width="1"/>
<text x="64" y="320.0" fill="#888" font-size="11" text-anchor="end">0</text>
<line x1="72" y1="251.0" x2="740" y2="251.0" stroke="#333" stroke-width="1"/>
<text x="64" y="255.0" fill="#888" font-size="11" text-anchor="end">12</text>
<line x1="72" y1="186.0" x2="740" y2="186.0" stroke="#333" stroke-width="1"/>
<text x="64" y="190.0" fill="#888" font-size="11" text-anchor="end">24</text>
<line x1="72" y1="121.0" x2="740" y2="121.0" stroke="#333" stroke-width="1"/>
<text x="64" y="125.0" fill="#888" font-size="11" text-anchor="end">36</text>
<line x1="72" y1="56.0" x2="740" y2="56.0" stroke="#333" stroke-width="1"/>
<text x="64" y="60.0" fill="#888" font-size="11" text-anchor="end">48</text>
<rect x="73.0" y="158.9" width="14.6857" height="157.1" fill="#6aa9ff" rx="2"/>
<line x1="77.3" y1="140.6" x2="83.3" y2="140.6" stroke="#ddd" stroke-width="1.2" opacity="0.75"/>
<line x1="77.3" y1="177.3" x2="83.3" y2="177.3" stroke="#ddd" stroke-width="1.2" opacity="0.75"/>
<line x1="80.3" y1="140.6" x2="80.3" y2="177.3" stroke="#ddd" stroke-width="1.2" opacity="0.75"/>
<text x="80.3" y="135.6" fill="#ddd" font-size="10" text-anchor="middle">29</text>
<rect x="92.7" y="99.3" width="14.6857" height="216.7" fill="#f0a35e" rx="2"/>
<line x1="97.0" y1="85.3" x2="103.0" y2="85.3" stroke="#ddd" stroke-width="1.2" opacity="0.75"/>
<line x1="97.0" y1="113.3" x2="103.0" y2="113.3" stroke="#ddd" stroke-width="1.2" opacity="0.75"/>
<line x1="100.0" y1="85.3" x2="100.0" y2="113.3" stroke="#ddd" stroke-width="1.2" opacity="0.75"/>
<text x="100.0" y="80.3" fill="#ddd" font-size="10" text-anchor="middle">40</text>
<rect x="112.4" y="137.2" width="14.6857" height="178.8" fill="#7ed09a" rx="2"/>
<line x1="116.7" y1="119.9" x2="122.7" y2="119.9" stroke="#ddd" stroke-width="1.2" opacity="0.75"/>
<line x1="116.7" y1="154.6" x2="122.7" y2="154.6" stroke="#ddd" stroke-width="1.2" opacity="0.75"/>
<line x1="119.7" y1="119.9" x2="119.7" y2="154.6" stroke="#ddd" stroke-width="1.2" opacity="0.75"/>
<text x="119.7" y="114.9" fill="#ddd" font-size="10" text-anchor="middle">33</text>
<rect x="132.1" y="202.2" width="14.6857" height="113.8" fill="#c792ea" rx="2"/>
<line x1="136.4" y1="183.6" x2="142.4" y2="183.6" stroke="#ddd" stroke-width="1.2" opacity="0.75"/>
<line x1="136.4" y1="220.9" x2="142.4" y2="220.9" stroke="#ddd" stroke-width="1.2" opacity="0.75"/>
<line x1="139.4" y1="183.6" x2="139.4" y2="220.9" stroke="#ddd" stroke-width="1.2" opacity="0.75"/>
<text x="139.4" y="178.6" fill="#ddd" font-size="10" text-anchor="middle">21</text>
<text x="119.7" y="334" fill="#ddd" font-size="11.5" text-anchor="middle">default</text>
<rect x="168.4" y="142.7" width="14.6857" height="173.3" fill="#6aa9ff" rx="2"/>
<line x1="172.8" y1="125.0" x2="178.8" y2="125.0" stroke="#ddd" stroke-width="1.2" opacity="0.75"/>
<line x1="172.8" y1="160.4" x2="178.8" y2="160.4" stroke="#ddd" stroke-width="1.2" opacity="0.75"/>
<line x1="175.8" y1="125.0" x2="175.8" y2="160.4" stroke="#ddd" stroke-width="1.2" opacity="0.75"/>
<text x="175.8" y="120.0" fill="#ddd" font-size="10" text-anchor="middle">32</text>
<rect x="188.1" y="88.5" width="14.6857" height="227.5" fill="#f0a35e" rx="2"/>
<line x1="192.5" y1="76.1" x2="198.5" y2="76.1" stroke="#ddd" stroke-width="1.2" opacity="0.75"/>
<line x1="192.5" y1="100.9" x2="198.5" y2="100.9" stroke="#ddd" stroke-width="1.2" opacity="0.75"/>
<line x1="195.5" y1="76.1" x2="195.5" y2="100.9" stroke="#ddd" stroke-width="1.2" opacity="0.75"/>
<text x="195.5" y="71.1" fill="#ddd" font-size="10" text-anchor="middle">42</text>
<rect x="207.8" y="169.8" width="14.6857" height="146.2" fill="#7ed09a" rx="2"/>
<line x1="212.1" y1="151.1" x2="218.1" y2="151.1" stroke="#ddd" stroke-width="1.2" opacity="0.75"/>
<line x1="212.1" y1="188.4" x2="218.1" y2="188.4" stroke="#ddd" stroke-width="1.2" opacity="0.75"/>
<line x1="215.1" y1="151.1" x2="215.1" y2="188.4" stroke="#ddd" stroke-width="1.2" opacity="0.75"/>
<text x="215.1" y="146.1" fill="#ddd" font-size="10" text-anchor="middle">27</text>
<rect x="227.5" y="180.6" width="14.6857" height="135.4" fill="#c792ea" rx="2"/>
<line x1="231.8" y1="161.8" x2="237.8" y2="161.8" stroke="#ddd" stroke-width="1.2" opacity="0.75"/>
<line x1="231.8" y1="199.3" x2="237.8" y2="199.3" stroke="#ddd" stroke-width="1.2" opacity="0.75"/>
<line x1="234.8" y1="161.8" x2="234.8" y2="199.3" stroke="#ddd" stroke-width="1.2" opacity="0.75"/>
<text x="234.8" y="156.8" fill="#ddd" font-size="10" text-anchor="middle">25</text>
<text x="215.1" y="334" fill="#ddd" font-size="11.5" text-anchor="middle">sharp</text>
<rect x="263.9" y="99.3" width="14.6857" height="216.7" fill="#6aa9ff" rx="2"/>
<line x1="268.2" y1="85.3" x2="274.2" y2="85.3" stroke="#ddd" stroke-width="1.2" opacity="0.75"/>
<line x1="268.2" y1="113.3" x2="274.2" y2="113.3" stroke="#ddd" stroke-width="1.2" opacity="0.75"/>
<line x1="271.2" y1="85.3" x2="271.2" y2="113.3" stroke="#ddd" stroke-width="1.2" opacity="0.75"/>
<text x="271.2" y="80.3" fill="#ddd" font-size="10" text-anchor="middle">40</text>
<rect x="283.5" y="126.4" width="14.6857" height="189.6" fill="#f0a35e" rx="2"/>
<line x1="287.9" y1="109.7" x2="293.9" y2="109.7" stroke="#ddd" stroke-width="1.2" opacity="0.75"/>
<line x1="287.9" y1="143.1" x2="293.9" y2="143.1" stroke="#ddd" stroke-width="1.2" opacity="0.75"/>
<line x1="290.9" y1="109.7" x2="290.9" y2="143.1" stroke="#ddd" stroke-width="1.2" opacity="0.75"/>
<text x="290.9" y="104.7" fill="#ddd" font-size="10" text-anchor="middle">35</text>
<rect x="303.2" y="131.8" width="14.6857" height="184.2" fill="#7ed09a" rx="2"/>
<line x1="307.6" y1="114.8" x2="313.6" y2="114.8" stroke="#ddd" stroke-width="1.2" opacity="0.75"/>
<line x1="307.6" y1="148.9" x2="313.6" y2="148.9" stroke="#ddd" stroke-width="1.2" opacity="0.75"/>
<line x1="310.6" y1="114.8" x2="310.6" y2="148.9" stroke="#ddd" stroke-width="1.2" opacity="0.75"/>
<text x="310.6" y="109.8" fill="#ddd" font-size="10" text-anchor="middle">34</text>
<rect x="322.9" y="196.8" width="14.6857" height="119.2" fill="#c792ea" rx="2"/>
<line x1="327.3" y1="178.1" x2="333.3" y2="178.1" stroke="#ddd" stroke-width="1.2" opacity="0.75"/>
<line x1="327.3" y1="215.5" x2="333.3" y2="215.5" stroke="#ddd" stroke-width="1.2" opacity="0.75"/>
<line x1="330.3" y1="178.1" x2="330.3" y2="215.5" stroke="#ddd" stroke-width="1.2" opacity="0.75"/>
<text x="330.3" y="173.1" fill="#ddd" font-size="10" text-anchor="middle">22</text>
<rect x="342.6" y="99.3" width="14.6857" height="216.7" fill="#e06c75" rx="2"/>
<line x1="346.9" y1="85.3" x2="352.9" y2="85.3" stroke="#ddd" stroke-width="1.2" opacity="0.75"/>
<line x1="346.9" y1="113.3" x2="352.9" y2="113.3" stroke="#ddd" stroke-width="1.2" opacity="0.75"/>
<line x1="349.9" y1="85.3" x2="349.9" y2="113.3" stroke="#ddd" stroke-width="1.2" opacity="0.75"/>
<text x="349.9" y="80.3" fill="#ddd" font-size="10" text-anchor="middle">40</text>
<text x="310.6" y="334" fill="#ddd" font-size="11.5" text-anchor="middle">cursor</text>
<rect x="359.3" y="110.2" width="14.6857" height="205.8" fill="#6aa9ff" rx="2"/>
<line x1="363.6" y1="94.9" x2="369.6" y2="94.9" stroke="#ddd" stroke-width="1.2" opacity="0.75"/>
<line x1="363.6" y1="125.4" x2="369.6" y2="125.4" stroke="#ddd" stroke-width="1.2" opacity="0.75"/>
<line x1="366.6" y1="94.9" x2="366.6" y2="125.4" stroke="#ddd" stroke-width="1.2" opacity="0.75"/>
<text x="366.6" y="89.9" fill="#ddd" font-size="10" text-anchor="middle">38</text>
<rect x="379.0" y="131.8" width="14.6857" height="184.2" fill="#f0a35e" rx="2"/>
<line x1="383.3" y1="114.8" x2="389.3" y2="114.8" stroke="#ddd" stroke-width="1.2" opacity="0.75"/>
<line x1="383.3" y1="148.9" x2="389.3" y2="148.9" stroke="#ddd" stroke-width="1.2" opacity="0.75"/>
<line x1="386.3" y1="114.8" x2="386.3" y2="148.9" stroke="#ddd" stroke-width="1.2" opacity="0.75"/>
<text x="386.3" y="109.8" fill="#ddd" font-size="10" text-anchor="middle">34</text>
<rect x="398.7" y="131.8" width="14.6857" height="184.2" fill="#7ed09a" rx="2"/>
<line x1="403.0" y1="114.8" x2="409.0" y2="114.8" stroke="#ddd" stroke-width="1.2" opacity="0.75"/>
<line x1="403.0" y1="148.9" x2="409.0" y2="148.9" stroke="#ddd" stroke-width="1.2" opacity="0.75"/>
<line x1="406.0" y1="114.8" x2="406.0" y2="148.9" stroke="#ddd" stroke-width="1.2" opacity="0.75"/>
<text x="406.0" y="109.8" fill="#ddd" font-size="10" text-anchor="middle">34</text>
<rect x="418.3" y="175.2" width="14.6857" height="140.8" fill="#c792ea" rx="2"/>
<line x1="422.7" y1="156.5" x2="428.7" y2="156.5" stroke="#ddd" stroke-width="1.2" opacity="0.75"/>
<line x1="422.7" y1="193.9" x2="428.7" y2="193.9" stroke="#ddd" stroke-width="1.2" opacity="0.75"/>
<line x1="425.7" y1="156.5" x2="425.7" y2="193.9" stroke="#ddd" stroke-width="1.2" opacity="0.75"/>
<text x="425.7" y="151.5" fill="#ddd" font-size="10" text-anchor="middle">26</text>
<text x="406.0" y="334" fill="#ddd" font-size="11.5" text-anchor="middle">kc-auto</text>
<rect x="454.7" y="153.5" width="14.6857" height="162.5" fill="#6aa9ff" rx="2"/>
<line x1="459.1" y1="135.3" x2="465.1" y2="135.3" stroke="#ddd" stroke-width="1.2" opacity="0.75"/>
<line x1="459.1" y1="171.7" x2="465.1" y2="171.7" stroke="#ddd" stroke-width="1.2" opacity="0.75"/>
<line x1="462.1" y1="135.3" x2="462.1" y2="171.7" stroke="#ddd" stroke-width="1.2" opacity="0.75"/>
<text x="462.1" y="130.3" fill="#ddd" font-size="10" text-anchor="middle">30</text>
<rect x="474.4" y="137.2" width="14.6857" height="178.8" fill="#f0a35e" rx="2"/>
<line x1="478.7" y1="119.9" x2="484.7" y2="119.9" stroke="#ddd" stroke-width="1.2" opacity="0.75"/>
<line x1="478.7" y1="154.6" x2="484.7" y2="154.6" stroke="#ddd" stroke-width="1.2" opacity="0.75"/>
<line x1="481.7" y1="119.9" x2="481.7" y2="154.6" stroke="#ddd" stroke-width="1.2" opacity="0.75"/>
<text x="481.7" y="114.9" fill="#ddd" font-size="10" text-anchor="middle">33</text>
<rect x="494.1" y="148.1" width="14.6857" height="167.9" fill="#7ed09a" rx="2"/>
<line x1="498.4" y1="130.1" x2="504.4" y2="130.1" stroke="#ddd" stroke-width="1.2" opacity="0.75"/>
<line x1="498.4" y1="166.0" x2="504.4" y2="166.0" stroke="#ddd" stroke-width="1.2" opacity="0.75"/>
<line x1="501.4" y1="130.1" x2="501.4" y2="166.0" stroke="#ddd" stroke-width="1.2" opacity="0.75"/>
<text x="501.4" y="125.1" fill="#ddd" font-size="10" text-anchor="middle">31</text>
<rect x="513.8" y="180.6" width="14.6857" height="135.4" fill="#c792ea" rx="2"/>
<line x1="518.1" y1="161.8" x2="524.1" y2="161.8" stroke="#ddd" stroke-width="1.2" opacity="0.75"/>
<line x1="518.1" y1="199.3" x2="524.1" y2="199.3" stroke="#ddd" stroke-width="1.2" opacity="0.75"/>
<line x1="521.1" y1="161.8" x2="521.1" y2="199.3" stroke="#ddd" stroke-width="1.2" opacity="0.75"/>
<text x="521.1" y="156.8" fill="#ddd" font-size="10" text-anchor="middle">25</text>
<text x="501.4" y="334" fill="#ddd" font-size="11.5" text-anchor="middle">kc-bal</text>
<rect x="550.1" y="104.8" width="14.6857" height="211.2" fill="#6aa9ff" rx="2"/>
<line x1="554.5" y1="90.1" x2="560.5" y2="90.1" stroke="#ddd" stroke-width="1.2" opacity="0.75"/>
<line x1="554.5" y1="119.4" x2="560.5" y2="119.4" stroke="#ddd" stroke-width="1.2" opacity="0.75"/>
<line x1="557.5" y1="90.1" x2="557.5" y2="119.4" stroke="#ddd" stroke-width="1.2" opacity="0.75"/>
<text x="557.5" y="85.1" fill="#ddd" font-size="10" text-anchor="middle">39</text>
<rect x="569.8" y="131.8" width="14.6857" height="184.2" fill="#f0a35e" rx="2"/>
<line x1="574.2" y1="114.8" x2="580.2" y2="114.8" stroke="#ddd" stroke-width="1.2" opacity="0.75"/>
<line x1="574.2" y1="148.9" x2="580.2" y2="148.9" stroke="#ddd" stroke-width="1.2" opacity="0.75"/>
<line x1="577.2" y1="114.8" x2="577.2" y2="148.9" stroke="#ddd" stroke-width="1.2" opacity="0.75"/>
<text x="577.2" y="109.8" fill="#ddd" font-size="10" text-anchor="middle">34</text>
<rect x="589.5" y="137.2" width="14.6857" height="178.8" fill="#7ed09a" rx="2"/>
<line x1="593.9" y1="119.9" x2="599.9" y2="119.9" stroke="#ddd" stroke-width="1.2" opacity="0.75"/>
<line x1="593.9" y1="154.6" x2="599.9" y2="154.6" stroke="#ddd" stroke-width="1.2" opacity="0.75"/>
<line x1="596.9" y1="119.9" x2="596.9" y2="154.6" stroke="#ddd" stroke-width="1.2" opacity="0.75"/>
<text x="596.9" y="114.9" fill="#ddd" font-size="10" text-anchor="middle">33</text>
<rect x="609.2" y="180.6" width="14.6857" height="135.4" fill="#c792ea" rx="2"/>
<line x1="613.5" y1="161.8" x2="619.5" y2="161.8" stroke="#ddd" stroke-width="1.2" opacity="0.75"/>
<line x1="613.5" y1="199.3" x2="619.5" y2="199.3" stroke="#ddd" stroke-width="1.2" opacity="0.75"/>
<line x1="616.5" y1="161.8" x2="616.5" y2="199.3" stroke="#ddd" stroke-width="1.2" opacity="0.75"/>
<text x="616.5" y="156.8" fill="#ddd" font-size="10" text-anchor="middle">25</text>
<rect x="628.9" y="99.3" width="14.6857" height="216.7" fill="#e06c75" rx="2"/>
<line x1="633.2" y1="85.3" x2="639.2" y2="85.3" stroke="#ddd" stroke-width="1.2" opacity="0.75"/>
<line x1="633.2" y1="113.3" x2="639.2" y2="113.3" stroke="#ddd" stroke-width="1.2" opacity="0.75"/>
<line x1="636.2" y1="85.3" x2="636.2" y2="113.3" stroke="#ddd" stroke-width="1.2" opacity="0.75"/>
<text x="636.2" y="80.3" fill="#ddd" font-size="10" text-anchor="middle">40</text>
<text x="596.9" y="334" fill="#ddd" font-size="11.5" text-anchor="middle">claude</text>
<rect x="704.6" y="186.0" width="14.6857" height="130.0" fill="#c792ea" rx="2"/>
<line x1="709.0" y1="167.2" x2="715.0" y2="167.2" stroke="#ddd" stroke-width="1.2" opacity="0.75"/>
<line x1="709.0" y1="204.8" x2="715.0" y2="204.8" stroke="#ddd" stroke-width="1.2" opacity="0.75"/>
<line x1="712.0" y1="167.2" x2="712.0" y2="204.8" stroke="#ddd" stroke-width="1.2" opacity="0.75"/>
<text x="712.0" y="162.2" fill="#ddd" font-size="10" text-anchor="middle">24</text>
<text x="692.3" y="334" fill="#ddd" font-size="11.5" text-anchor="middle">codex</text>
<line x1="72" y1="316" x2="740" y2="316" stroke="#888" stroke-width="1"/>
<rect x="72" y="369" width="12" height="12" fill="#6aa9ff" rx="2"/>
<text x="90" y="379" fill="#ddd" font-size="12">GLM-5.2</text>
<rect x="152" y="369" width="12" height="12" fill="#f0a35e" rx="2"/>
<text x="170" y="379" fill="#ddd" font-size="12">K2.7</text>
<rect x="211" y="369" width="12" height="12" fill="#7ed09a" rx="2"/>
<text x="229" y="379" fill="#ddd" font-size="12">K2.6</text>
<rect x="270" y="369" width="12" height="12" fill="#c792ea" rx="2"/>
<text x="288" y="379" fill="#ddd" font-size="12">DeepSeek-V4-Pro</text>
<rect x="408" y="369" width="12" height="12" fill="#e06c75" rx="2"/>
<text x="426" y="379" fill="#ddd" font-size="12">Opus-4.8-xhigh</text>
</svg>