<svg xmlns="http://www.w3.org/2000/svg" width="760" height="400" viewBox="0 0 760 400" font-family="-apple-system,Segoe UI,Roboto,sans-serif">
<rect width="760" height="400" fill="#111" rx="8"/>
<text x="72" y="30" fill="#ddd" font-size="16" font-weight="600">Tokens per arm — by prompt × model</text>
<text x="740" y="30" fill="#888" font-size="11" text-anchor="end">millions, 48 instances (lower is better)</text>
<line x1="72" y1="316.0" x2="740" y2="316.0" stroke="#333" stroke-width="1"/>
<text x="64" y="320.0" fill="#888" font-size="11" text-anchor="end">0</text>
<line x1="72" y1="264.0" x2="740" y2="264.0" stroke="#333" stroke-width="1"/>
<text x="64" y="268.0" fill="#888" font-size="11" text-anchor="end">14</text>
<line x1="72" y1="212.0" x2="740" y2="212.0" stroke="#333" stroke-width="1"/>
<text x="64" y="216.0" fill="#888" font-size="11" text-anchor="end">28</text>
<line x1="72" y1="160.0" x2="740" y2="160.0" stroke="#333" stroke-width="1"/>
<text x="64" y="164.0" fill="#888" font-size="11" text-anchor="end">42</text>
<line x1="72" y1="108.0" x2="740" y2="108.0" stroke="#333" stroke-width="1"/>
<text x="64" y="112.0" fill="#888" font-size="11" text-anchor="end">56</text>
<line x1="72" y1="56.0" x2="740" y2="56.0" stroke="#333" stroke-width="1"/>
<text x="64" y="60.0" fill="#888" font-size="11" text-anchor="end">70</text>
<rect x="78.7" y="271.4" width="24" height="44.6" fill="#6aa9ff" rx="2"/>
<text x="90.7" y="266.4" fill="#ddd" font-size="10" text-anchor="middle">12M</text>
<rect x="107.7" y="238.0" width="24" height="78.0" fill="#f0a35e" rx="2"/>
<text x="119.7" y="233.0" fill="#ddd" font-size="10" text-anchor="middle">21M</text>
<text x="119.7" y="334" fill="#ddd" font-size="11.5" text-anchor="middle">default</text>
<rect x="174.1" y="260.3" width="24" height="55.7" fill="#6aa9ff" rx="2"/>
<text x="186.1" y="255.3" fill="#ddd" font-size="10" text-anchor="middle">15M</text>
<rect x="203.1" y="200.9" width="24" height="115.1" fill="#f0a35e" rx="2"/>
<text x="215.1" y="195.9" fill="#ddd" font-size="10" text-anchor="middle">31M</text>
<text x="215.1" y="334" fill="#ddd" font-size="11.5" text-anchor="middle">sharp</text>
<rect x="269.6" y="241.7" width="24" height="74.3" fill="#6aa9ff" rx="2"/>
<text x="281.6" y="236.7" fill="#ddd" font-size="10" text-anchor="middle">20M</text>
<rect x="298.6" y="219.4" width="24" height="96.6" fill="#f0a35e" rx="2"/>
<text x="310.6" y="214.4" fill="#ddd" font-size="10" text-anchor="middle">26M</text>
<rect x="327.6" y="167.4" width="24" height="148.6" fill="#7ed09a" rx="2"/>
<text x="339.6" y="162.4" fill="#ddd" font-size="10" text-anchor="middle">40M</text>
<text x="310.6" y="334" fill="#ddd" font-size="11.5" text-anchor="middle">cursor</text>
<rect x="365.0" y="215.7" width="24" height="100.3" fill="#6aa9ff" rx="2"/>
<text x="377.0" y="210.7" fill="#ddd" font-size="10" text-anchor="middle">27M</text>
<rect x="394.0" y="167.4" width="24" height="148.6" fill="#f0a35e" rx="2"/>
<text x="406.0" y="162.4" fill="#ddd" font-size="10" text-anchor="middle">40M</text>
<text x="406.0" y="334" fill="#ddd" font-size="11.5" text-anchor="middle">kc-auto</text>
<rect x="460.4" y="249.1" width="24" height="66.9" fill="#6aa9ff" rx="2"/>
<text x="472.4" y="244.1" fill="#ddd" font-size="10" text-anchor="middle">18M</text>
<rect x="489.4" y="160.0" width="24" height="156.0" fill="#f0a35e" rx="2"/>
<text x="501.4" y="155.0" fill="#ddd" font-size="10" text-anchor="middle">42M</text>
<text x="501.4" y="334" fill="#ddd" font-size="11.5" text-anchor="middle">kc-bal</text>
<rect x="555.9" y="252.9" width="24" height="63.1" fill="#6aa9ff" rx="2"/>
<text x="567.9" y="247.9" fill="#ddd" font-size="10" text-anchor="middle">17M</text>
<rect x="584.9" y="226.9" width="24" height="89.1" fill="#f0a35e" rx="2"/>
<text x="596.9" y="221.9" fill="#ddd" font-size="10" text-anchor="middle">24M</text>
<rect x="613.9" y="134.0" width="24" height="182.0" fill="#7ed09a" rx="2"/>
<text x="625.9" y="129.0" fill="#ddd" font-size="10" text-anchor="middle">49M</text>
<text x="596.9" y="334" fill="#ddd" font-size="11.5" text-anchor="middle">claude</text>
<rect x="680.3" y="215.7" width="24" height="100.3" fill="#f0a35e" rx="2"/>
<text x="692.3" y="210.7" fill="#ddd" font-size="10" text-anchor="middle">27M</text>
<text x="692.3" y="334" fill="#ddd" font-size="11.5" text-anchor="middle">codex</text>
<line x1="72" y1="316" x2="740" y2="316" stroke="#888" stroke-width="1"/>
<rect x="72" y="369" width="12" height="12" fill="#6aa9ff" rx="2"/>
<text x="90" y="379" fill="#ddd" font-size="12">GLM-5.2</text>
<rect x="152" y="369" width="12" height="12" fill="#f0a35e" rx="2"/>
<text x="170" y="379" fill="#ddd" font-size="12">DeepSeek-V4-Pro</text>
<rect x="290" y="369" width="12" height="12" fill="#7ed09a" rx="2"/>
<text x="308" y="379" fill="#ddd" font-size="12">Opus-4.8-xhigh</text>
</svg>