<svg xmlns="http://www.w3.org/2000/svg" width="760" height="400" viewBox="0 0 760 400" font-family="-apple-system,Segoe UI,Roboto,sans-serif">
<rect width="760" height="400" fill="#111" rx="8"/>
<text x="72" y="30" fill="#ddd" font-size="16" font-weight="600">Resolved — by prompt × model (harder band)</text>
<text x="740" y="30" fill="#888" font-size="11" text-anchor="end">instances resolved / 48 (higher is better)</text>
<line x1="72" y1="316.0" x2="740" y2="316.0" stroke="#333" stroke-width="1"/>
<text x="64" y="320.0" fill="#888" font-size="11" text-anchor="end">0</text>
<line x1="72" y1="251.0" x2="740" y2="251.0" stroke="#333" stroke-width="1"/>
<text x="64" y="255.0" fill="#888" font-size="11" text-anchor="end">12</text>
<line x1="72" y1="186.0" x2="740" y2="186.0" stroke="#333" stroke-width="1"/>
<text x="64" y="190.0" fill="#888" font-size="11" text-anchor="end">24</text>
<line x1="72" y1="121.0" x2="740" y2="121.0" stroke="#333" stroke-width="1"/>
<text x="64" y="125.0" fill="#888" font-size="11" text-anchor="end">36</text>
<line x1="72" y1="56.0" x2="740" y2="56.0" stroke="#333" stroke-width="1"/>
<text x="64" y="60.0" fill="#888" font-size="11" text-anchor="end">48</text>
<rect x="73.0" y="158.9" width="14.6857" height="157.1" fill="#6aa9ff" rx="2"/>
<text x="80.3" y="153.9" fill="#ddd" font-size="10" text-anchor="middle">29</text>
<rect x="92.7" y="99.3" width="14.6857" height="216.7" fill="#f0a35e" rx="2"/>
<text x="100.0" y="94.3" fill="#ddd" font-size="10" text-anchor="middle">40</text>
<rect x="112.4" y="137.2" width="14.6857" height="178.8" fill="#7ed09a" rx="2"/>
<text x="119.7" y="132.2" fill="#ddd" font-size="10" text-anchor="middle">33</text>
<rect x="132.1" y="202.2" width="14.6857" height="113.8" fill="#c792ea" rx="2"/>
<text x="139.4" y="197.2" fill="#ddd" font-size="10" text-anchor="middle">21</text>
<text x="119.7" y="334" fill="#ddd" font-size="11.5" text-anchor="middle">default</text>
<rect x="168.4" y="142.7" width="14.6857" height="173.3" fill="#6aa9ff" rx="2"/>
<text x="175.8" y="137.7" fill="#ddd" font-size="10" text-anchor="middle">32</text>
<rect x="188.1" y="88.5" width="14.6857" height="227.5" fill="#f0a35e" rx="2"/>
<text x="195.5" y="83.5" fill="#ddd" font-size="10" text-anchor="middle">42</text>
<rect x="207.8" y="169.8" width="14.6857" height="146.2" fill="#7ed09a" rx="2"/>
<text x="215.1" y="164.8" fill="#ddd" font-size="10" text-anchor="middle">27</text>
<rect x="227.5" y="180.6" width="14.6857" height="135.4" fill="#c792ea" rx="2"/>
<text x="234.8" y="175.6" fill="#ddd" font-size="10" text-anchor="middle">25</text>
<text x="215.1" y="334" fill="#ddd" font-size="11.5" text-anchor="middle">sharp</text>
<rect x="263.9" y="99.3" width="14.6857" height="216.7" fill="#6aa9ff" rx="2"/>
<text x="271.2" y="94.3" fill="#ddd" font-size="10" text-anchor="middle">40</text>
<rect x="283.5" y="126.4" width="14.6857" height="189.6" fill="#f0a35e" rx="2"/>
<text x="290.9" y="121.4" fill="#ddd" font-size="10" text-anchor="middle">35</text>
<rect x="303.2" y="131.8" width="14.6857" height="184.2" fill="#7ed09a" rx="2"/>
<text x="310.6" y="126.8" fill="#ddd" font-size="10" text-anchor="middle">34</text>
<rect x="322.9" y="196.8" width="14.6857" height="119.2" fill="#c792ea" rx="2"/>
<text x="330.3" y="191.8" fill="#ddd" font-size="10" text-anchor="middle">22</text>
<rect x="342.6" y="99.3" width="14.6857" height="216.7" fill="#e06c75" rx="2"/>
<text x="349.9" y="94.3" fill="#ddd" font-size="10" text-anchor="middle">40</text>
<text x="310.6" y="334" fill="#ddd" font-size="11.5" text-anchor="middle">cursor</text>
<rect x="359.3" y="110.2" width="14.6857" height="205.8" fill="#6aa9ff" rx="2"/>
<text x="366.6" y="105.2" fill="#ddd" font-size="10" text-anchor="middle">38</text>
<rect x="379.0" y="131.8" width="14.6857" height="184.2" fill="#f0a35e" rx="2"/>
<text x="386.3" y="126.8" fill="#ddd" font-size="10" text-anchor="middle">34</text>
<rect x="398.7" y="131.8" width="14.6857" height="184.2" fill="#7ed09a" rx="2"/>
<text x="406.0" y="126.8" fill="#ddd" font-size="10" text-anchor="middle">34</text>
<rect x="418.3" y="175.2" width="14.6857" height="140.8" fill="#c792ea" rx="2"/>
<text x="425.7" y="170.2" fill="#ddd" font-size="10" text-anchor="middle">26</text>
<text x="406.0" y="334" fill="#ddd" font-size="11.5" text-anchor="middle">kc-auto</text>
<rect x="454.7" y="153.5" width="14.6857" height="162.5" fill="#6aa9ff" rx="2"/>
<text x="462.1" y="148.5" fill="#ddd" font-size="10" text-anchor="middle">30</text>
<rect x="474.4" y="137.2" width="14.6857" height="178.8" fill="#f0a35e" rx="2"/>
<text x="481.7" y="132.2" fill="#ddd" font-size="10" text-anchor="middle">33</text>
<rect x="494.1" y="148.1" width="14.6857" height="167.9" fill="#7ed09a" rx="2"/>
<text x="501.4" y="143.1" fill="#ddd" font-size="10" text-anchor="middle">31</text>
<rect x="513.8" y="180.6" width="14.6857" height="135.4" fill="#c792ea" rx="2"/>
<text x="521.1" y="175.6" fill="#ddd" font-size="10" text-anchor="middle">25</text>
<text x="501.4" y="334" fill="#ddd" font-size="11.5" text-anchor="middle">kc-bal</text>
<rect x="550.1" y="104.8" width="14.6857" height="211.2" fill="#6aa9ff" rx="2"/>
<text x="557.5" y="99.8" fill="#ddd" font-size="10" text-anchor="middle">39</text>
<rect x="569.8" y="131.8" width="14.6857" height="184.2" fill="#f0a35e" rx="2"/>
<text x="577.2" y="126.8" fill="#ddd" font-size="10" text-anchor="middle">34</text>
<rect x="589.5" y="137.2" width="14.6857" height="178.8" fill="#7ed09a" rx="2"/>
<text x="596.9" y="132.2" fill="#ddd" font-size="10" text-anchor="middle">33</text>
<rect x="609.2" y="180.6" width="14.6857" height="135.4" fill="#c792ea" rx="2"/>
<text x="616.5" y="175.6" fill="#ddd" font-size="10" text-anchor="middle">25</text>
<rect x="628.9" y="99.3" width="14.6857" height="216.7" fill="#e06c75" rx="2"/>
<text x="636.2" y="94.3" fill="#ddd" font-size="10" text-anchor="middle">40</text>
<text x="596.9" y="334" fill="#ddd" font-size="11.5" text-anchor="middle">claude</text>
<rect x="704.6" y="186.0" width="14.6857" height="130.0" fill="#c792ea" rx="2"/>
<text x="712.0" y="181.0" fill="#ddd" font-size="10" text-anchor="middle">24</text>
<text x="692.3" y="334" fill="#ddd" font-size="11.5" text-anchor="middle">codex</text>
<line x1="72" y1="316" x2="740" y2="316" stroke="#888" stroke-width="1"/>
<rect x="72" y="369" width="12" height="12" fill="#6aa9ff" rx="2"/>
<text x="90" y="379" fill="#ddd" font-size="12">GLM-5.2</text>
<rect x="152" y="369" width="12" height="12" fill="#f0a35e" rx="2"/>
<text x="170" y="379" fill="#ddd" font-size="12">K2.7</text>
<rect x="211" y="369" width="12" height="12" fill="#7ed09a" rx="2"/>
<text x="229" y="379" fill="#ddd" font-size="12">K2.6</text>
<rect x="270" y="369" width="12" height="12" fill="#c792ea" rx="2"/>
<text x="288" y="379" fill="#ddd" font-size="12">DeepSeek-V4-Pro</text>
<rect x="408" y="369" width="12" height="12" fill="#e06c75" rx="2"/>
<text x="426" y="379" fill="#ddd" font-size="12">Opus-4.8-xhigh</text>
</svg>