<svg xmlns="http://www.w3.org/2000/svg" width="760" height="400" viewBox="0 0 760 400" font-family="-apple-system,Segoe UI,Roboto,sans-serif">
<rect width="760" height="400" fill="#111" rx="8"/>
<text x="72" y="30" fill="#ddd" font-size="16" font-weight="600">Resolved — by prompt × model (harder band)</text>
<text x="740" y="30" fill="#888" font-size="11" text-anchor="end">instances resolved / 43 (higher is better)</text>
<line x1="72" y1="316.0" x2="740" y2="316.0" stroke="#333" stroke-width="1"/>
<text x="64" y="320.0" fill="#888" font-size="11" text-anchor="end">0</text>
<line x1="72" y1="255.5" x2="740" y2="255.5" stroke="#333" stroke-width="1"/>
<text x="64" y="259.5" fill="#888" font-size="11" text-anchor="end">10</text>
<line x1="72" y1="195.1" x2="740" y2="195.1" stroke="#333" stroke-width="1"/>
<text x="64" y="199.1" fill="#888" font-size="11" text-anchor="end">20</text>
<line x1="72" y1="134.6" x2="740" y2="134.6" stroke="#333" stroke-width="1"/>
<text x="64" y="138.6" fill="#888" font-size="11" text-anchor="end">30</text>
<line x1="72" y1="74.1" x2="740" y2="74.1" stroke="#333" stroke-width="1"/>
<text x="64" y="78.1" fill="#888" font-size="11" text-anchor="end">40</text>
<rect x="75.5" y="219.3" width="22.3333" height="96.7" fill="#6aa9ff" rx="2"/>
<text x="86.7" y="214.3" fill="#ddd" font-size="10" text-anchor="middle">16</text>
<rect x="102.8" y="164.8" width="22.3333" height="151.2" fill="#f0a35e" rx="2"/>
<text x="114.0" y="159.8" fill="#ddd" font-size="10" text-anchor="middle">25</text>
<rect x="130.2" y="158.8" width="22.3333" height="157.2" fill="#7ed09a" rx="2"/>
<text x="141.3" y="153.8" fill="#ddd" font-size="10" text-anchor="middle">26</text>
<text x="127.7" y="334" fill="#ddd" font-size="11.5" text-anchor="middle">default</text>
<rect x="186.8" y="189.0" width="22.3333" height="127.0" fill="#6aa9ff" rx="2"/>
<text x="198.0" y="184.0" fill="#ddd" font-size="10" text-anchor="middle">21</text>
<rect x="214.2" y="207.2" width="22.3333" height="108.8" fill="#f0a35e" rx="2"/>
<text x="225.3" y="202.2" fill="#ddd" font-size="10" text-anchor="middle">18</text>
<rect x="241.5" y="140.7" width="22.3333" height="175.3" fill="#7ed09a" rx="2"/>
<text x="252.7" y="135.7" fill="#ddd" font-size="10" text-anchor="middle">29</text>
<text x="239.0" y="334" fill="#ddd" font-size="11.5" text-anchor="middle">sharp</text>
<rect x="298.2" y="195.1" width="22.3333" height="120.9" fill="#6aa9ff" rx="2"/>
<text x="309.3" y="190.1" fill="#ddd" font-size="10" text-anchor="middle">20</text>
<rect x="325.5" y="213.2" width="22.3333" height="102.8" fill="#f0a35e" rx="2"/>
<text x="336.7" y="208.2" fill="#ddd" font-size="10" text-anchor="middle">17</text>
<rect x="352.8" y="92.3" width="22.3333" height="223.7" fill="#7ed09a" rx="2"/>
<text x="364.0" y="87.3" fill="#ddd" font-size="10" text-anchor="middle">37</text>
<rect x="380.2" y="104.4" width="22.3333" height="211.6" fill="#c792ea" rx="2"/>
<text x="391.3" y="99.4" fill="#ddd" font-size="10" text-anchor="middle">35</text>
<text x="350.3" y="334" fill="#ddd" font-size="11.5" text-anchor="middle">cursor</text>
<rect x="409.5" y="201.1" width="22.3333" height="114.9" fill="#6aa9ff" rx="2"/>
<text x="420.7" y="196.1" fill="#ddd" font-size="10" text-anchor="middle">19</text>
<rect x="436.8" y="195.1" width="22.3333" height="120.9" fill="#f0a35e" rx="2"/>
<text x="448.0" y="190.1" fill="#ddd" font-size="10" text-anchor="middle">20</text>
<rect x="464.2" y="110.4" width="22.3333" height="205.6" fill="#7ed09a" rx="2"/>
<text x="475.3" y="105.4" fill="#ddd" font-size="10" text-anchor="middle">34</text>
<text x="461.7" y="334" fill="#ddd" font-size="11.5" text-anchor="middle">kc-auto</text>
<rect x="520.8" y="207.2" width="22.3333" height="108.8" fill="#6aa9ff" rx="2"/>
<text x="532.0" y="202.2" fill="#ddd" font-size="10" text-anchor="middle">18</text>
<rect x="548.2" y="237.4" width="22.3333" height="78.6" fill="#f0a35e" rx="2"/>
<text x="559.3" y="232.4" fill="#ddd" font-size="10" text-anchor="middle">13</text>
<rect x="575.5" y="152.7" width="22.3333" height="163.3" fill="#7ed09a" rx="2"/>
<text x="586.7" y="147.7" fill="#ddd" font-size="10" text-anchor="middle">27</text>
<text x="573.0" y="334" fill="#ddd" font-size="11.5" text-anchor="middle">kc-bal</text>
<rect x="632.2" y="231.3" width="22.3333" height="84.7" fill="#6aa9ff" rx="2"/>
<text x="643.3" y="226.3" fill="#ddd" font-size="10" text-anchor="middle">14</text>
<rect x="659.5" y="183.0" width="22.3333" height="133.0" fill="#f0a35e" rx="2"/>
<text x="670.7" y="178.0" fill="#ddd" font-size="10" text-anchor="middle">22</text>
<rect x="686.8" y="104.4" width="22.3333" height="211.6" fill="#7ed09a" rx="2"/>
<text x="698.0" y="99.4" fill="#ddd" font-size="10" text-anchor="middle">35</text>
<rect x="714.2" y="98.3" width="22.3333" height="217.7" fill="#c792ea" rx="2"/>
<text x="725.3" y="93.3" fill="#ddd" font-size="10" text-anchor="middle">36</text>
<text x="684.3" y="334" fill="#ddd" font-size="11.5" text-anchor="middle">claude</text>
<line x1="72" y1="316" x2="740" y2="316" stroke="#888" stroke-width="1"/>
<rect x="72" y="369" width="12" height="12" fill="#6aa9ff" rx="2"/>
<text x="90" y="379" fill="#ddd" font-size="12">K2.6</text>
<rect x="131" y="369" width="12" height="12" fill="#f0a35e" rx="2"/>
<text x="149" y="379" fill="#ddd" font-size="12">K2.7</text>
<rect x="190" y="369" width="12" height="12" fill="#7ed09a" rx="2"/>
<text x="208" y="379" fill="#ddd" font-size="12">GLM-5.2</text>
<rect x="270" y="369" width="12" height="12" fill="#c792ea" rx="2"/>
<text x="288" y="379" fill="#ddd" font-size="12">Opus-xhigh</text>
</svg>