<svg xmlns="http://www.w3.org/2000/svg" width="760" height="400" viewBox="0 0 760 400" font-family="-apple-system,Segoe UI,Roboto,sans-serif">
<rect width="760" height="400" fill="#111" rx="8"/>
<text x="72" y="30" fill="#ddd" font-size="16" font-weight="600">Tool calls per instance — by prompt × model</text>
<text x="740" y="30" fill="#888" font-size="11" text-anchor="end">avg calls (lower is better)</text>
<line x1="72" y1="316.0" x2="740" y2="316.0" stroke="#333" stroke-width="1"/>
<text x="64" y="320.0" fill="#888" font-size="11" text-anchor="end">0</text>
<line x1="72" y1="229.3" x2="740" y2="229.3" stroke="#333" stroke-width="1"/>
<text x="64" y="233.3" fill="#888" font-size="11" text-anchor="end">15</text>
<line x1="72" y1="142.7" x2="740" y2="142.7" stroke="#333" stroke-width="1"/>
<text x="64" y="146.7" fill="#888" font-size="11" text-anchor="end">30</text>
<line x1="72" y1="56.0" x2="740" y2="56.0" stroke="#333" stroke-width="1"/>
<text x="64" y="60.0" fill="#888" font-size="11" text-anchor="end">45</text>
<rect x="78.7" y="252.4" width="24" height="63.6" fill="#6aa9ff" rx="2"/>
<text x="90.7" y="247.4" fill="#ddd" font-size="10" text-anchor="middle">11</text>
<rect x="107.7" y="229.3" width="24" height="86.7" fill="#f0a35e" rx="2"/>
<text x="119.7" y="224.3" fill="#ddd" font-size="10" text-anchor="middle">15</text>
<text x="119.7" y="334" fill="#ddd" font-size="11.5" text-anchor="middle">default</text>
<rect x="174.1" y="235.1" width="24" height="80.9" fill="#6aa9ff" rx="2"/>
<text x="186.1" y="230.1" fill="#ddd" font-size="10" text-anchor="middle">14</text>
<rect x="203.1" y="206.2" width="24" height="109.8" fill="#f0a35e" rx="2"/>
<text x="215.1" y="201.2" fill="#ddd" font-size="10" text-anchor="middle">19</text>
<text x="215.1" y="334" fill="#ddd" font-size="11.5" text-anchor="middle">sharp</text>
<rect x="269.6" y="229.3" width="24" height="86.7" fill="#6aa9ff" rx="2"/>
<text x="281.6" y="224.3" fill="#ddd" font-size="10" text-anchor="middle">15</text>
<rect x="298.6" y="206.2" width="24" height="109.8" fill="#f0a35e" rx="2"/>
<text x="310.6" y="201.2" fill="#ddd" font-size="10" text-anchor="middle">19</text>
<rect x="327.6" y="212.0" width="24" height="104.0" fill="#7ed09a" rx="2"/>
<text x="339.6" y="207.0" fill="#ddd" font-size="10" text-anchor="middle">18</text>
<text x="310.6" y="334" fill="#ddd" font-size="11.5" text-anchor="middle">cursor</text>
<rect x="365.0" y="194.7" width="24" height="121.3" fill="#6aa9ff" rx="2"/>
<text x="377.0" y="189.7" fill="#ddd" font-size="10" text-anchor="middle">21</text>
<rect x="394.0" y="154.2" width="24" height="161.8" fill="#f0a35e" rx="2"/>
<text x="406.0" y="149.2" fill="#ddd" font-size="10" text-anchor="middle">28</text>
<text x="406.0" y="334" fill="#ddd" font-size="11.5" text-anchor="middle">kc-auto</text>
<rect x="460.4" y="217.8" width="24" height="98.2" fill="#6aa9ff" rx="2"/>
<text x="472.4" y="212.8" fill="#ddd" font-size="10" text-anchor="middle">17</text>
<rect x="489.4" y="142.7" width="24" height="173.3" fill="#f0a35e" rx="2"/>
<text x="501.4" y="137.7" fill="#ddd" font-size="10" text-anchor="middle">30</text>
<text x="501.4" y="334" fill="#ddd" font-size="11.5" text-anchor="middle">kc-bal</text>
<rect x="555.9" y="229.3" width="24" height="86.7" fill="#6aa9ff" rx="2"/>
<text x="567.9" y="224.3" fill="#ddd" font-size="10" text-anchor="middle">15</text>
<rect x="584.9" y="212.0" width="24" height="104.0" fill="#f0a35e" rx="2"/>
<text x="596.9" y="207.0" fill="#ddd" font-size="10" text-anchor="middle">18</text>
<rect x="613.9" y="188.9" width="24" height="127.1" fill="#7ed09a" rx="2"/>
<text x="625.9" y="183.9" fill="#ddd" font-size="10" text-anchor="middle">22</text>
<text x="596.9" y="334" fill="#ddd" font-size="11.5" text-anchor="middle">claude</text>
<rect x="680.3" y="206.2" width="24" height="109.8" fill="#f0a35e" rx="2"/>
<text x="692.3" y="201.2" fill="#ddd" font-size="10" text-anchor="middle">19</text>
<text x="692.3" y="334" fill="#ddd" font-size="11.5" text-anchor="middle">codex</text>
<line x1="72" y1="316" x2="740" y2="316" stroke="#888" stroke-width="1"/>
<rect x="72" y="369" width="12" height="12" fill="#6aa9ff" rx="2"/>
<text x="90" y="379" fill="#ddd" font-size="12">GLM-5.2</text>
<rect x="152" y="369" width="12" height="12" fill="#f0a35e" rx="2"/>
<text x="170" y="379" fill="#ddd" font-size="12">DeepSeek-V4-Pro</text>
<rect x="290" y="369" width="12" height="12" fill="#7ed09a" rx="2"/>
<text x="308" y="379" fill="#ddd" font-size="12">Opus-4.8-xhigh</text>
</svg>