<svg xmlns="http://www.w3.org/2000/svg" width="760" height="400" viewBox="0 0 760 400" font-family="-apple-system,Segoe UI,Roboto,sans-serif">
<rect width="760" height="400" fill="#111" rx="8"/>
<text x="72" y="30" fill="#ddd" font-size="16" font-weight="600">Tokens per arm — by prompt × model</text>
<text x="740" y="30" fill="#888" font-size="11" text-anchor="end">millions, 48 instances (lower is better)</text>
<line x1="72" y1="316.0" x2="740" y2="316.0" stroke="#333" stroke-width="1"/>
<text x="64" y="320.0" fill="#888" font-size="11" text-anchor="end">0</text>
<line x1="72" y1="264.0" x2="740" y2="264.0" stroke="#333" stroke-width="1"/>
<text x="64" y="268.0" fill="#888" font-size="11" text-anchor="end">14</text>
<line x1="72" y1="212.0" x2="740" y2="212.0" stroke="#333" stroke-width="1"/>
<text x="64" y="216.0" fill="#888" font-size="11" text-anchor="end">28</text>
<line x1="72" y1="160.0" x2="740" y2="160.0" stroke="#333" stroke-width="1"/>
<text x="64" y="164.0" fill="#888" font-size="11" text-anchor="end">42</text>
<line x1="72" y1="108.0" x2="740" y2="108.0" stroke="#333" stroke-width="1"/>
<text x="64" y="112.0" fill="#888" font-size="11" text-anchor="end">56</text>
<line x1="72" y1="56.0" x2="740" y2="56.0" stroke="#333" stroke-width="1"/>
<text x="64" y="60.0" fill="#888" font-size="11" text-anchor="end">70</text>
<rect x="75.5" y="186.0" width="22.3333" height="130.0" fill="#6aa9ff" rx="2"/>
<text x="86.7" y="181.0" fill="#ddd" font-size="10" text-anchor="middle">35M</text>
<rect x="102.8" y="163.7" width="22.3333" height="152.3" fill="#f0a35e" rx="2"/>
<text x="114.0" y="158.7" fill="#ddd" font-size="10" text-anchor="middle">41M</text>
<rect x="130.2" y="271.4" width="22.3333" height="44.6" fill="#7ed09a" rx="2"/>
<text x="141.3" y="266.4" fill="#ddd" font-size="10" text-anchor="middle">12M</text>
<text x="127.7" y="334" fill="#ddd" font-size="11.5" text-anchor="middle">default</text>
<rect x="186.8" y="160.0" width="22.3333" height="156.0" fill="#6aa9ff" rx="2"/>
<text x="198.0" y="155.0" fill="#ddd" font-size="10" text-anchor="middle">42M</text>
<rect x="214.2" y="167.4" width="22.3333" height="148.6" fill="#f0a35e" rx="2"/>
<text x="225.3" y="162.4" fill="#ddd" font-size="10" text-anchor="middle">40M</text>
<rect x="241.5" y="260.3" width="22.3333" height="55.7" fill="#7ed09a" rx="2"/>
<text x="252.7" y="255.3" fill="#ddd" font-size="10" text-anchor="middle">15M</text>
<text x="239.0" y="334" fill="#ddd" font-size="11.5" text-anchor="middle">sharp</text>
<rect x="298.2" y="156.3" width="22.3333" height="159.7" fill="#6aa9ff" rx="2"/>
<text x="309.3" y="151.3" fill="#ddd" font-size="10" text-anchor="middle">43M</text>
<rect x="325.5" y="137.7" width="22.3333" height="178.3" fill="#f0a35e" rx="2"/>
<text x="336.7" y="132.7" fill="#ddd" font-size="10" text-anchor="middle">48M</text>
<rect x="352.8" y="241.7" width="22.3333" height="74.3" fill="#7ed09a" rx="2"/>
<text x="364.0" y="236.7" fill="#ddd" font-size="10" text-anchor="middle">20M</text>
<rect x="380.2" y="167.4" width="22.3333" height="148.6" fill="#c792ea" rx="2"/>
<text x="391.3" y="162.4" fill="#ddd" font-size="10" text-anchor="middle">40M</text>
<text x="350.3" y="334" fill="#ddd" font-size="11.5" text-anchor="middle">cursor</text>
<rect x="409.5" y="78.3" width="22.3333" height="237.7" fill="#6aa9ff" rx="2"/>
<text x="420.7" y="73.3" fill="#ddd" font-size="10" text-anchor="middle">64M</text>
<rect x="436.8" y="96.9" width="22.3333" height="219.1" fill="#f0a35e" rx="2"/>
<text x="448.0" y="91.9" fill="#ddd" font-size="10" text-anchor="middle">59M</text>
<rect x="464.2" y="215.7" width="22.3333" height="100.3" fill="#7ed09a" rx="2"/>
<text x="475.3" y="210.7" fill="#ddd" font-size="10" text-anchor="middle">27M</text>
<text x="461.7" y="334" fill="#ddd" font-size="11.5" text-anchor="middle">kc-auto</text>
<rect x="520.8" y="171.1" width="22.3333" height="144.9" fill="#6aa9ff" rx="2"/>
<text x="532.0" y="166.1" fill="#ddd" font-size="10" text-anchor="middle">39M</text>
<rect x="548.2" y="122.9" width="22.3333" height="193.1" fill="#f0a35e" rx="2"/>
<text x="559.3" y="117.9" fill="#ddd" font-size="10" text-anchor="middle">52M</text>
<rect x="575.5" y="249.1" width="22.3333" height="66.9" fill="#7ed09a" rx="2"/>
<text x="586.7" y="244.1" fill="#ddd" font-size="10" text-anchor="middle">18M</text>
<text x="573.0" y="334" fill="#ddd" font-size="11.5" text-anchor="middle">kc-bal</text>
<rect x="632.2" y="160.0" width="22.3333" height="156.0" fill="#6aa9ff" rx="2"/>
<text x="643.3" y="155.0" fill="#ddd" font-size="10" text-anchor="middle">42M</text>
<rect x="659.5" y="148.9" width="22.3333" height="167.1" fill="#f0a35e" rx="2"/>
<text x="670.7" y="143.9" fill="#ddd" font-size="10" text-anchor="middle">45M</text>
<rect x="686.8" y="252.9" width="22.3333" height="63.1" fill="#7ed09a" rx="2"/>
<text x="698.0" y="247.9" fill="#ddd" font-size="10" text-anchor="middle">17M</text>
<rect x="714.2" y="134.0" width="22.3333" height="182.0" fill="#c792ea" rx="2"/>
<text x="725.3" y="129.0" fill="#ddd" font-size="10" text-anchor="middle">49M</text>
<text x="684.3" y="334" fill="#ddd" font-size="11.5" text-anchor="middle">claude</text>
<line x1="72" y1="316" x2="740" y2="316" stroke="#888" stroke-width="1"/>
<rect x="72" y="369" width="12" height="12" fill="#6aa9ff" rx="2"/>
<text x="90" y="379" fill="#ddd" font-size="12">K2.6</text>
<rect x="131" y="369" width="12" height="12" fill="#f0a35e" rx="2"/>
<text x="149" y="379" fill="#ddd" font-size="12">K2.7</text>
<rect x="190" y="369" width="12" height="12" fill="#7ed09a" rx="2"/>
<text x="208" y="379" fill="#ddd" font-size="12">GLM-5.2</text>
<rect x="270" y="369" width="12" height="12" fill="#c792ea" rx="2"/>
<text x="288" y="379" fill="#ddd" font-size="12">Opus-xhigh</text>
</svg>