<svg xmlns="http://www.w3.org/2000/svg" width="760" height="400" viewBox="0 0 760 400" font-family="-apple-system,Segoe UI,Roboto,sans-serif">
<rect width="760" height="400" fill="#111" rx="8"/>
<text x="72" y="30" fill="#ddd" font-size="16" font-weight="600">Resolved — by prompt × model (harder band)</text>
<text x="740" y="30" fill="#888" font-size="11" text-anchor="end">instances resolved / 43 (higher is better)</text>
<line x1="72" y1="316.0" x2="740" y2="316.0" stroke="#333" stroke-width="1"/>
<text x="64" y="320.0" fill="#888" font-size="11" text-anchor="end">0</text>
<line x1="72" y1="255.5" x2="740" y2="255.5" stroke="#333" stroke-width="1"/>
<text x="64" y="259.5" fill="#888" font-size="11" text-anchor="end">10</text>
<line x1="72" y1="195.1" x2="740" y2="195.1" stroke="#333" stroke-width="1"/>
<text x="64" y="199.1" fill="#888" font-size="11" text-anchor="end">20</text>
<line x1="72" y1="134.6" x2="740" y2="134.6" stroke="#333" stroke-width="1"/>
<text x="64" y="138.6" fill="#888" font-size="11" text-anchor="end">30</text>
<line x1="72" y1="74.1" x2="740" y2="74.1" stroke="#333" stroke-width="1"/>
<text x="64" y="78.1" fill="#888" font-size="11" text-anchor="end">40</text>
<rect x="82.7" y="219.3" width="26" height="96.7" fill="#6aa9ff" rx="2"/>
<text x="95.7" y="214.3" fill="#ddd" font-size="10" text-anchor="middle">16</text>
<rect x="114.7" y="164.8" width="26" height="151.2" fill="#f0a35e" rx="2"/>
<text x="127.7" y="159.8" fill="#ddd" font-size="10" text-anchor="middle">25</text>
<rect x="146.7" y="158.8" width="26" height="157.2" fill="#7ed09a" rx="2"/>
<text x="159.7" y="153.8" fill="#ddd" font-size="10" text-anchor="middle">26</text>
<text x="127.7" y="334" fill="#ddd" font-size="11.5" text-anchor="middle">default</text>
<rect x="194.0" y="189.0" width="26" height="127.0" fill="#6aa9ff" rx="2"/>
<text x="207.0" y="184.0" fill="#ddd" font-size="10" text-anchor="middle">21</text>
<rect x="226.0" y="207.2" width="26" height="108.8" fill="#f0a35e" rx="2"/>
<text x="239.0" y="202.2" fill="#ddd" font-size="10" text-anchor="middle">18</text>
<rect x="258.0" y="140.7" width="26" height="175.3" fill="#7ed09a" rx="2"/>
<text x="271.0" y="135.7" fill="#ddd" font-size="10" text-anchor="middle">29</text>
<text x="239.0" y="334" fill="#ddd" font-size="11.5" text-anchor="middle">sharp</text>
<rect x="305.3" y="195.1" width="26" height="120.9" fill="#6aa9ff" rx="2"/>
<text x="318.3" y="190.1" fill="#ddd" font-size="10" text-anchor="middle">20</text>
<rect x="337.3" y="213.2" width="26" height="102.8" fill="#f0a35e" rx="2"/>
<text x="350.3" y="208.2" fill="#ddd" font-size="10" text-anchor="middle">17</text>
<rect x="369.3" y="92.3" width="26" height="223.7" fill="#7ed09a" rx="2"/>
<text x="382.3" y="87.3" fill="#ddd" font-size="10" text-anchor="middle">37</text>
<text x="350.3" y="334" fill="#ddd" font-size="11.5" text-anchor="middle">cursor</text>
<rect x="416.7" y="201.1" width="26" height="114.9" fill="#6aa9ff" rx="2"/>
<text x="429.7" y="196.1" fill="#ddd" font-size="10" text-anchor="middle">19</text>
<rect x="448.7" y="195.1" width="26" height="120.9" fill="#f0a35e" rx="2"/>
<text x="461.7" y="190.1" fill="#ddd" font-size="10" text-anchor="middle">20</text>
<rect x="480.7" y="110.4" width="26" height="205.6" fill="#7ed09a" rx="2"/>
<text x="493.7" y="105.4" fill="#ddd" font-size="10" text-anchor="middle">34</text>
<text x="461.7" y="334" fill="#ddd" font-size="11.5" text-anchor="middle">kc-auto</text>
<rect x="528.0" y="207.2" width="26" height="108.8" fill="#6aa9ff" rx="2"/>
<text x="541.0" y="202.2" fill="#ddd" font-size="10" text-anchor="middle">18</text>
<rect x="560.0" y="237.4" width="26" height="78.6" fill="#f0a35e" rx="2"/>
<text x="573.0" y="232.4" fill="#ddd" font-size="10" text-anchor="middle">13</text>
<rect x="592.0" y="152.7" width="26" height="163.3" fill="#7ed09a" rx="2"/>
<text x="605.0" y="147.7" fill="#ddd" font-size="10" text-anchor="middle">27</text>
<text x="573.0" y="334" fill="#ddd" font-size="11.5" text-anchor="middle">kc-bal</text>
<rect x="639.3" y="231.3" width="26" height="84.7" fill="#6aa9ff" rx="2"/>
<text x="652.3" y="226.3" fill="#ddd" font-size="10" text-anchor="middle">14</text>
<rect x="671.3" y="183.0" width="26" height="133.0" fill="#f0a35e" rx="2"/>
<text x="684.3" y="178.0" fill="#ddd" font-size="10" text-anchor="middle">22</text>
<rect x="703.3" y="104.4" width="26" height="211.6" fill="#7ed09a" rx="2"/>
<text x="716.3" y="99.4" fill="#ddd" font-size="10" text-anchor="middle">35</text>
<text x="684.3" y="334" fill="#ddd" font-size="11.5" text-anchor="middle">claude</text>
<line x1="72" y1="316" x2="740" y2="316" stroke="#888" stroke-width="1"/>
<rect x="72" y="369" width="12" height="12" fill="#6aa9ff" rx="2"/>
<text x="90" y="379" fill="#ddd" font-size="12">K2.6</text>
<rect x="168" y="369" width="12" height="12" fill="#f0a35e" rx="2"/>
<text x="186" y="379" fill="#ddd" font-size="12">K2.7</text>
<rect x="264" y="369" width="12" height="12" fill="#7ed09a" rx="2"/>
<text x="282" y="379" fill="#ddd" font-size="12">GLM-5.2</text>
</svg>