<svg xmlns="http://www.w3.org/2000/svg" width="760" height="400" viewBox="0 0 760 400" font-family="-apple-system,Segoe UI,Roboto,sans-serif">
<rect width="760" height="400" fill="#111" rx="8"/>
<text x="72" y="30" fill="#ddd" font-size="16" font-weight="600">Resolved — by prompt × model (harder band)</text>
<text x="740" y="30" fill="#888" font-size="11" text-anchor="end">instances resolved / 48 (higher is better)</text>
<line x1="72" y1="316.0" x2="740" y2="316.0" stroke="#333" stroke-width="1"/>
<text x="64" y="320.0" fill="#888" font-size="11" text-anchor="end">0</text>
<line x1="72" y1="251.0" x2="740" y2="251.0" stroke="#333" stroke-width="1"/>
<text x="64" y="255.0" fill="#888" font-size="11" text-anchor="end">12</text>
<line x1="72" y1="186.0" x2="740" y2="186.0" stroke="#333" stroke-width="1"/>
<text x="64" y="190.0" fill="#888" font-size="11" text-anchor="end">24</text>
<line x1="72" y1="121.0" x2="740" y2="121.0" stroke="#333" stroke-width="1"/>
<text x="64" y="125.0" fill="#888" font-size="11" text-anchor="end">36</text>
<line x1="72" y1="56.0" x2="740" y2="56.0" stroke="#333" stroke-width="1"/>
<text x="64" y="60.0" fill="#888" font-size="11" text-anchor="end">48</text>
<rect x="78.7" y="158.9" width="24" height="157.1" fill="#6aa9ff" rx="2"/>
<text x="90.7" y="153.9" fill="#ddd" font-size="10" text-anchor="middle">29</text>
<rect x="107.7" y="202.2" width="24" height="113.8" fill="#f0a35e" rx="2"/>
<text x="119.7" y="197.2" fill="#ddd" font-size="10" text-anchor="middle">21</text>
<text x="119.7" y="334" fill="#ddd" font-size="11.5" text-anchor="middle">default</text>
<rect x="174.1" y="142.7" width="24" height="173.3" fill="#6aa9ff" rx="2"/>
<text x="186.1" y="137.7" fill="#ddd" font-size="10" text-anchor="middle">32</text>
<rect x="203.1" y="180.6" width="24" height="135.4" fill="#f0a35e" rx="2"/>
<text x="215.1" y="175.6" fill="#ddd" font-size="10" text-anchor="middle">25</text>
<text x="215.1" y="334" fill="#ddd" font-size="11.5" text-anchor="middle">sharp</text>
<rect x="269.6" y="99.3" width="24" height="216.7" fill="#6aa9ff" rx="2"/>
<text x="281.6" y="94.3" fill="#ddd" font-size="10" text-anchor="middle">40</text>
<rect x="298.6" y="196.8" width="24" height="119.2" fill="#f0a35e" rx="2"/>
<text x="310.6" y="191.8" fill="#ddd" font-size="10" text-anchor="middle">22</text>
<rect x="327.6" y="99.3" width="24" height="216.7" fill="#7ed09a" rx="2"/>
<text x="339.6" y="94.3" fill="#ddd" font-size="10" text-anchor="middle">40</text>
<text x="310.6" y="334" fill="#ddd" font-size="11.5" text-anchor="middle">cursor</text>
<rect x="365.0" y="110.2" width="24" height="205.8" fill="#6aa9ff" rx="2"/>
<text x="377.0" y="105.2" fill="#ddd" font-size="10" text-anchor="middle">38</text>
<rect x="394.0" y="175.2" width="24" height="140.8" fill="#f0a35e" rx="2"/>
<text x="406.0" y="170.2" fill="#ddd" font-size="10" text-anchor="middle">26</text>
<text x="406.0" y="334" fill="#ddd" font-size="11.5" text-anchor="middle">kc-auto</text>
<rect x="460.4" y="153.5" width="24" height="162.5" fill="#6aa9ff" rx="2"/>
<text x="472.4" y="148.5" fill="#ddd" font-size="10" text-anchor="middle">30</text>
<rect x="489.4" y="180.6" width="24" height="135.4" fill="#f0a35e" rx="2"/>
<text x="501.4" y="175.6" fill="#ddd" font-size="10" text-anchor="middle">25</text>
<text x="501.4" y="334" fill="#ddd" font-size="11.5" text-anchor="middle">kc-bal</text>
<rect x="555.9" y="104.8" width="24" height="211.2" fill="#6aa9ff" rx="2"/>
<text x="567.9" y="99.8" fill="#ddd" font-size="10" text-anchor="middle">39</text>
<rect x="584.9" y="180.6" width="24" height="135.4" fill="#f0a35e" rx="2"/>
<text x="596.9" y="175.6" fill="#ddd" font-size="10" text-anchor="middle">25</text>
<rect x="613.9" y="99.3" width="24" height="216.7" fill="#7ed09a" rx="2"/>
<text x="625.9" y="94.3" fill="#ddd" font-size="10" text-anchor="middle">40</text>
<text x="596.9" y="334" fill="#ddd" font-size="11.5" text-anchor="middle">claude</text>
<rect x="680.3" y="186.0" width="24" height="130.0" fill="#f0a35e" rx="2"/>
<text x="692.3" y="181.0" fill="#ddd" font-size="10" text-anchor="middle">24</text>
<text x="692.3" y="334" fill="#ddd" font-size="11.5" text-anchor="middle">codex</text>
<line x1="72" y1="316" x2="740" y2="316" stroke="#888" stroke-width="1"/>
<rect x="72" y="369" width="12" height="12" fill="#6aa9ff" rx="2"/>
<text x="90" y="379" fill="#ddd" font-size="12">GLM-5.2</text>
<rect x="152" y="369" width="12" height="12" fill="#f0a35e" rx="2"/>
<text x="170" y="379" fill="#ddd" font-size="12">DeepSeek-V4-Pro</text>
<rect x="290" y="369" width="12" height="12" fill="#7ed09a" rx="2"/>
<text x="308" y="379" fill="#ddd" font-size="12">Opus-4.8-xhigh</text>
</svg>