<svg xmlns="http://www.w3.org/2000/svg" width="760" height="400" viewBox="0 0 760 400" font-family="-apple-system,Segoe UI,Roboto,sans-serif">
<rect width="760" height="400" fill="#111" rx="8"/>
<text x="72" y="30" fill="#ddd" font-size="16" font-weight="600">Avg tokens per instance — by prompt × model</text>
<text x="740" y="30" fill="#888" font-size="11" text-anchor="end">thousands of tokens (lower is better)</text>
<line x1="72" y1="316.0" x2="740" y2="316.0" stroke="#333" stroke-width="1"/>
<text x="64" y="320.0" fill="#888" font-size="11" text-anchor="end">0</text>
<line x1="72" y1="251.0" x2="740" y2="251.0" stroke="#333" stroke-width="1"/>
<text x="64" y="255.0" fill="#888" font-size="11" text-anchor="end">250</text>
<line x1="72" y1="186.0" x2="740" y2="186.0" stroke="#333" stroke-width="1"/>
<text x="64" y="190.0" fill="#888" font-size="11" text-anchor="end">500</text>
<line x1="72" y1="121.0" x2="740" y2="121.0" stroke="#333" stroke-width="1"/>
<text x="64" y="125.0" fill="#888" font-size="11" text-anchor="end">750</text>
<line x1="72" y1="56.0" x2="740" y2="56.0" stroke="#333" stroke-width="1"/>
<text x="64" y="60.0" fill="#888" font-size="11" text-anchor="end">1000</text>
<rect x="93.7" y="125.9" width="30" height="190.1" fill="#6aa9ff" rx="2"/>
<text x="108.7" y="120.9" fill="#ddd" font-size="10.5" text-anchor="middle">731k</text>
<rect x="131.7" y="126.7" width="30" height="189.3" fill="#f0a35e" rx="2"/>
<text x="146.7" y="121.7" fill="#ddd" font-size="10.5" text-anchor="middle">728k</text>
<text x="127.7" y="334" fill="#ddd" font-size="11.5" text-anchor="middle">default</text>
<rect x="205.0" y="146.5" width="30" height="169.5" fill="#6aa9ff" rx="2"/>
<text x="220.0" y="141.5" fill="#ddd" font-size="10.5" text-anchor="middle">652k</text>
<rect x="243.0" y="178.2" width="30" height="137.8" fill="#f0a35e" rx="2"/>
<text x="258.0" y="173.2" fill="#ddd" font-size="10.5" text-anchor="middle">530k</text>
<text x="239.0" y="334" fill="#ddd" font-size="11.5" text-anchor="middle">sharp</text>
<rect x="316.3" y="104.4" width="30" height="211.6" fill="#6aa9ff" rx="2"/>
<text x="331.3" y="99.4" fill="#ddd" font-size="10.5" text-anchor="middle">814k</text>
<rect x="354.3" y="120.7" width="30" height="195.3" fill="#f0a35e" rx="2"/>
<text x="369.3" y="115.7" fill="#ddd" font-size="10.5" text-anchor="middle">751k</text>
<text x="350.3" y="334" fill="#ddd" font-size="11.5" text-anchor="middle">cursor</text>
<rect x="427.7" y="181.6" width="30" height="134.4" fill="#6aa9ff" rx="2"/>
<text x="442.7" y="176.6" fill="#ddd" font-size="10.5" text-anchor="middle">517k</text>
<rect x="465.7" y="158.2" width="30" height="157.8" fill="#f0a35e" rx="2"/>
<text x="480.7" y="153.2" fill="#ddd" font-size="10.5" text-anchor="middle">607k</text>
<text x="461.7" y="334" fill="#ddd" font-size="11.5" text-anchor="middle">codex-coding</text>
<rect x="539.0" y="140.2" width="30" height="175.8" fill="#6aa9ff" rx="2"/>
<text x="554.0" y="135.2" fill="#ddd" font-size="10.5" text-anchor="middle">676k</text>
<rect x="577.0" y="166.5" width="30" height="149.5" fill="#f0a35e" rx="2"/>
<text x="592.0" y="161.5" fill="#ddd" font-size="10.5" text-anchor="middle">575k</text>
<text x="573.0" y="334" fill="#ddd" font-size="11.5" text-anchor="middle">claude-code</text>
<rect x="650.3" y="175.3" width="30" height="140.7" fill="#6aa9ff" rx="2"/>
<text x="665.3" y="170.3" fill="#ddd" font-size="10.5" text-anchor="middle">541k</text>
<rect x="688.3" y="79.9" width="30" height="236.1" fill="#f0a35e" rx="2"/>
<text x="703.3" y="74.9" fill="#ddd" font-size="10.5" text-anchor="middle">908k</text>
<text x="684.3" y="334" fill="#ddd" font-size="11.5" text-anchor="middle">cline</text>
<line x1="72" y1="316" x2="740" y2="316" stroke="#888" stroke-width="1"/>
<rect x="72" y="369" width="12" height="12" fill="#6aa9ff" rx="2"/>
<text x="90" y="379" fill="#ddd" font-size="12">K2.6</text>
<rect x="144" y="369" width="12" height="12" fill="#f0a35e" rx="2"/>
<text x="162" y="379" fill="#ddd" font-size="12">K2.7</text>
</svg>