<svg xmlns="http://www.w3.org/2000/svg" width="620" height="440" viewBox="0 0 620 440" font-family="-apple-system,Segoe UI,Roboto,sans-serif">
<rect width="620" height="440" fill="#111" rx="8"/>
<text x="120" y="28" fill="#ddd" font-size="16" font-weight="600">Same models, two benchmarks — the ranking inverts</text>
<text x="120" y="46" fill="#888" font-size="11">resolved / pass@1 (%). The lines crossing = SWE-bench Verified rank is largely contamination.</text>
<line x1="120" y1="384.0" x2="500" y2="384.0" stroke="#333" stroke-width="1"/>
<text x="110" y="388.0" fill="#888" font-size="11" text-anchor="end">0</text>
<line x1="120" y1="304.0" x2="500" y2="304.0" stroke="#333" stroke-width="1"/>
<text x="110" y="308.0" fill="#888" font-size="11" text-anchor="end">25</text>
<line x1="120" y1="224.0" x2="500" y2="224.0" stroke="#333" stroke-width="1"/>
<text x="110" y="228.0" fill="#888" font-size="11" text-anchor="end">50</text>
<line x1="120" y1="144.0" x2="500" y2="144.0" stroke="#333" stroke-width="1"/>
<text x="110" y="148.0" fill="#888" font-size="11" text-anchor="end">75</text>
<line x1="120" y1="64.0" x2="500" y2="64.0" stroke="#333" stroke-width="1"/>
<text x="110" y="68.0" fill="#888" font-size="11" text-anchor="end">100</text>
<text x="120" y="408" fill="#ddd" font-size="12.5" font-weight="600" text-anchor="start">SWE-bench Verified</text>
<text x="120" y="424" fill="#888" font-size="10" text-anchor="start">memorizable — public, pre-cutoff</text>
<text x="500" y="408" fill="#ddd" font-size="12.5" font-weight="600" text-anchor="end">DeepSWE</text>
<text x="500" y="424" fill="#888" font-size="10" text-anchor="end">decontaminated — written from scratch</text>
<line x1="120" y1="118.4" x2="500" y2="195.2" stroke="#7ed09a" stroke-width="2.5"/>
<circle cx="120" cy="118.4" r="4.5" fill="#7ed09a"/>
<circle cx="500" cy="195.2" r="4.5" fill="#7ed09a"/>
<line x1="120" y1="118.4" x2="500" y2="243.2" stroke="#6aa9ff" stroke-width="2.5"/>
<circle cx="120" cy="118.4" r="4.5" fill="#6aa9ff"/>
<circle cx="500" cy="243.2" r="4.5" fill="#6aa9ff"/>
<line x1="120" y1="102.4" x2="500" y2="284.8" stroke="#f0a35e" stroke-width="2.5"/>
<circle cx="120" cy="102.4" r="4.5" fill="#f0a35e"/>
<circle cx="500" cy="284.8" r="4.5" fill="#f0a35e"/>
<text x="106" y="122.4" fill="#7ed09a" font-size="12.5" font-weight="600" text-anchor="end">Opus-4.8 83%</text>
<text x="514" y="199.2" fill="#7ed09a" font-size="12.5" font-weight="600" text-anchor="start">59%</text>
<text x="106" y="138.4" fill="#6aa9ff" font-size="12.5" font-weight="600" text-anchor="end">GLM-5.2 83%</text>
<text x="514" y="247.2" fill="#6aa9ff" font-size="12.5" font-weight="600" text-anchor="start">44%</text>
<text x="106" y="106.4" fill="#f0a35e" font-size="12.5" font-weight="600" text-anchor="end">K2.7 88%</text>
<text x="514" y="288.8" fill="#f0a35e" font-size="12.5" font-weight="600" text-anchor="start">31%</text>
</svg>